<?xml version="1.0" encoding="UTF-8" standalone="no"?>
<!-- Created with Inkscape (http://www.inkscape.org/) -->

<svg
   width="44.408848mm"
   height="14.913604mm"
   viewBox="0 0 44.408848 14.913604"
   version="1.1"
   id="svg5"
   xml:space="preserve"
   xmlns="http://www.w3.org/2000/svg"
   xmlns:svg="http://www.w3.org/2000/svg"><defs
     id="defs2"><filter
       style="color-interpolation-filters:sRGB"
       id="filter13982"
       x="-0.071400099"
       y="-0.058767553"
       width="1.1249074"
       height="1.144536"><feFlood
         flood-opacity="0.329412"
         flood-color="rgb(0,0,0)"
         result="flood"
         id="feFlood13972" /><feComposite
         in="flood"
         in2="SourceGraphic"
         operator="in"
         result="composite1"
         id="feComposite13974" /><feGaussianBlur
         in="composite1"
         stdDeviation="0.4"
         result="blur"
         id="feGaussianBlur13976" /><feOffset
         dx="-0.32569"
         dy="0.44521"
         result="offset"
         id="feOffset13978" /><feComposite
         in="SourceGraphic"
         in2="offset"
         operator="over"
         result="composite2"
         id="feComposite13980" /></filter><filter
       style="color-interpolation-filters:sRGB"
       id="filter13994"
       x="-0.071400099"
       y="-0.058767553"
       width="1.1249074"
       height="1.144536"><feFlood
         flood-opacity="0.329412"
         flood-color="rgb(0,0,0)"
         result="flood"
         id="feFlood13984" /><feComposite
         in="flood"
         in2="SourceGraphic"
         operator="in"
         result="composite1"
         id="feComposite13986" /><feGaussianBlur
         in="composite1"
         stdDeviation="0.4"
         result="blur"
         id="feGaussianBlur13988" /><feOffset
         dx="-0.32569"
         dy="0.44521"
         result="offset"
         id="feOffset13990" /><feComposite
         in="SourceGraphic"
         in2="offset"
         operator="over"
         result="composite2"
         id="feComposite13992" /></filter><filter
       style="color-interpolation-filters:sRGB"
       id="filter14006"
       x="-0.071400099"
       y="-0.058767553"
       width="1.1249074"
       height="1.144536"><feFlood
         flood-opacity="0.329412"
         flood-color="rgb(0,0,0)"
         result="flood"
         id="feFlood13996" /><feComposite
         in="flood"
         in2="SourceGraphic"
         operator="in"
         result="composite1"
         id="feComposite13998" /><feGaussianBlur
         in="composite1"
         stdDeviation="0.4"
         result="blur"
         id="feGaussianBlur14000" /><feOffset
         dx="-0.32569"
         dy="0.44521"
         result="offset"
         id="feOffset14002" /><feComposite
         in="SourceGraphic"
         in2="offset"
         operator="over"
         result="composite2"
         id="feComposite14004" /></filter><filter
       style="color-interpolation-filters:sRGB"
       id="filter14018"
       x="-0.038450018"
       y="-0.064370789"
       width="1.0671599"
       height="1.1585943"><feFlood
         flood-opacity="0.329412"
         flood-color="rgb(0,0,0)"
         result="flood"
         id="feFlood14008" /><feComposite
         in="flood"
         in2="SourceGraphic"
         operator="in"
         result="composite1"
         id="feComposite14010" /><feGaussianBlur
         in="composite1"
         stdDeviation="0.4"
         result="blur"
         id="feGaussianBlur14012" /><feOffset
         dx="-0.32569"
         dy="0.44521"
         result="offset"
         id="feOffset14014" /><feComposite
         in="SourceGraphic"
         in2="offset"
         operator="over"
         result="composite2"
         id="feComposite14016" /></filter><filter
       style="color-interpolation-filters:sRGB"
       id="filter14030"
       x="-0.03294782"
       y="-0.064370789"
       width="1.0575494"
       height="1.1585943"><feFlood
         flood-opacity="0.329412"
         flood-color="rgb(0,0,0)"
         result="flood"
         id="feFlood14020" /><feComposite
         in="flood"
         in2="SourceGraphic"
         operator="in"
         result="composite1"
         id="feComposite14022" /><feGaussianBlur
         in="composite1"
         stdDeviation="0.4"
         result="blur"
         id="feGaussianBlur14024" /><feOffset
         dx="-0.32569"
         dy="0.44521"
         result="offset"
         id="feOffset14026" /><feComposite
         in="SourceGraphic"
         in2="offset"
         operator="over"
         result="composite2"
         id="feComposite14028" /></filter><filter
       style="color-interpolation-filters:sRGB"
       id="filter14042"
       x="-0.028951213"
       y="-0.064370789"
       width="1.0505685"
       height="1.1585943"><feFlood
         flood-opacity="0.329412"
         flood-color="rgb(0,0,0)"
         result="flood"
         id="feFlood14032" /><feComposite
         in="flood"
         in2="SourceGraphic"
         operator="in"
         result="composite1"
         id="feComposite14034" /><feGaussianBlur
         in="composite1"
         stdDeviation="0.4"
         result="blur"
         id="feGaussianBlur14036" /><feOffset
         dx="-0.32569"
         dy="0.44521"
         result="offset"
         id="feOffset14038" /><feComposite
         in="SourceGraphic"
         in2="offset"
         operator="over"
         result="composite2"
         id="feComposite14040" /></filter></defs><g
     id="layer1"
     transform="translate(380.41803,-272.46017)"><rect
       style="font-variation-settings:'wdth' 82, 'wght' 638;fill:#ffffff;fill-opacity:1;stroke:#cccccc;stroke-width:0.02;stroke-linecap:round;stroke-linejoin:round;paint-order:stroke fill markers;stop-color:#000000"
       id="rect14684"
       width="137.5554"
       height="51.59383"
       x="-386.09314"
       y="334.44189" /><path
       style="font-variation-settings:'wdth' 82, 'wght' 638;fill:#94caea;fill-opacity:1;stroke:#333333;stroke-width:0.02;stroke-linecap:round;stroke-linejoin:round;paint-order:stroke fill markers;stop-color:#000000"
       d="m -300.23215,294.56843 -6.35149,11.0011 a 2.749631,2.749631 59.999997 0 0 2.38125,4.12445 h 12.70298 a 2.749631,2.749631 120 0 0 2.38125,-4.12445 l -6.35149,-11.0011 a 2.74963,2.74963 0 0 0 -4.7625,0 z"
       id="path1737" /><path
       style="font-variation-settings:'wdth' 82, 'wght' 638;fill:#83fbdb;fill-opacity:1;stroke:#333333;stroke-width:0.02;stroke-linecap:round;stroke-linejoin:round;paint-order:stroke fill markers;stop-color:#000000"
       d="m -300.15734,272.76353 -6.35149,11.0011 a 2.749631,2.749631 59.999997 0 0 2.38125,4.12445 h 12.70298 a 2.749631,2.749631 120 0 0 2.38125,-4.12445 l -6.35149,-11.0011 a 2.74963,2.74963 0 0 0 -4.7625,0 z"
       id="path1703" /><path
       style="font-variation-settings:'wdth' 82, 'wght' 638;fill:#f4ff80;fill-opacity:1;stroke:#333333;stroke-width:0.02;stroke-linecap:round;stroke-linejoin:round;paint-order:stroke fill markers;stop-color:#000000"
       d="m -300.51102,250.56764 -6.35149,11.0011 a 2.749631,2.749631 59.999997 0 0 2.38125,4.12445 h 12.70298 a 2.749631,2.749631 120 0 0 2.38125,-4.12445 l -6.35149,-11.0011 a 2.74963,2.74963 180 0 0 -4.7625,0 z"
       id="path1539" /><rect
       style="fill:#83fbdb;fill-opacity:1;stroke:none;stroke-width:1.2;stroke-linecap:round;stroke-linejoin:round;stroke-dasharray:none;stroke-opacity:1;paint-order:stroke fill markers;stop-color:#000000"
       id="rect3628"
       width="44.408848"
       height="14.913598"
       x="-380.418"
       y="272.46017" /><rect
       style="fill:#f4ff80;fill-opacity:1;stroke:none;stroke-width:1.2;stroke-linecap:round;stroke-linejoin:round;stroke-dasharray:none;stroke-opacity:1;paint-order:stroke fill markers;stop-color:#000000"
       id="rect3630"
       width="33.437958"
       height="14.913598"
       x="-380.418"
       y="250.63258" /><g
       id="g3656"
       transform="matrix(0.89976986,0,0,0.89976986,-37.642364,112.8972)"
       style="stroke-width:1.1114"><circle
         style="fill:#000000;stroke:none;stroke-width:1.75998;stroke-linecap:round;stroke-linejoin:round;stroke-dasharray:none;stroke-opacity:1;paint-order:stroke fill markers;stop-color:#000000"
         id="use3648"
         cx="-371.5249"
         cy="181.5"
         r="1.9052323" /><circle
         style="fill:#000000;stroke:none;stroke-width:1.75998;stroke-linecap:round;stroke-linejoin:round;stroke-dasharray:none;stroke-opacity:1;paint-order:stroke fill markers;stop-color:#000000"
         id="use3650"
         cx="-376.28806"
         cy="189.74998"
         r="1.9052323" /><circle
         style="fill:#000000;stroke:none;stroke-width:1.75998;stroke-linecap:round;stroke-linejoin:round;stroke-dasharray:none;stroke-opacity:1;paint-order:stroke fill markers;stop-color:#000000"
         id="use3652"
         cx="-366.76178"
         cy="189.74998"
         r="1.9052323" /><path
         style="fill:#000000;stroke:#000000;stroke-width:1.22253;stroke-linecap:round;stroke-linejoin:round;stroke-dasharray:none;stroke-opacity:1;paint-order:stroke fill markers;stop-color:#000000"
         d="m -367.33952,189.75001 h -8.37154"
         id="path3654" /></g><rect
       style="fill:#94caea;fill-opacity:1;stroke:none;stroke-width:1.2;stroke-linecap:round;stroke-linejoin:round;stroke-dasharray:none;stroke-opacity:1;paint-order:stroke fill markers;stop-color:#000000"
       id="rect3658"
       width="39.022007"
       height="14.913598"
       x="-380.418"
       y="294.46017" /><g
       id="g3670"
       transform="matrix(0.89976986,0,0,0.89976986,-37.717173,115.10226)"
       style="stroke-width:1.1114"><circle
         style="fill:#000000;stroke:none;stroke-width:1.75998;stroke-linecap:round;stroke-linejoin:round;stroke-dasharray:none;stroke-opacity:1;paint-order:stroke fill markers;stop-color:#000000"
         id="use3660"
         cx="-371.5249"
         cy="203.5"
         r="1.9052323" /><circle
         style="fill:#000000;stroke:none;stroke-width:1.75998;stroke-linecap:round;stroke-linejoin:round;stroke-dasharray:none;stroke-opacity:1;paint-order:stroke fill markers;stop-color:#000000"
         id="use3662"
         cx="-376.28806"
         cy="211.74998"
         r="1.9052323" /><circle
         style="fill:#000000;stroke:none;stroke-width:1.75998;stroke-linecap:round;stroke-linejoin:round;stroke-dasharray:none;stroke-opacity:1;paint-order:stroke fill markers;stop-color:#000000"
         id="use3664"
         cx="-366.76178"
         cy="211.74998"
         r="1.9052323" /><path
         style="fill:#000000;stroke:#000000;stroke-width:1.22253;stroke-linecap:round;stroke-linejoin:round;stroke-dasharray:none;stroke-opacity:1;paint-order:stroke fill markers;stop-color:#000000"
         d="m -376.28804,211.75 4.76314,-8.25"
         id="path3666" /><path
         style="fill:#000000;stroke:#000000;stroke-width:1.22253;stroke-linecap:round;stroke-linejoin:round;stroke-dasharray:none;stroke-opacity:1;paint-order:stroke fill markers;stop-color:#000000"
         d="m -371.52489,203.5 4.76313,8.25"
         id="path3668" /></g><g
       id="g3646"
       transform="matrix(0.89976986,0,0,0.89690466,-37.996045,111.14834)"
       style="stroke-width:1.11317"><g
         id="g3644"
         style="stroke-width:1.11317"><circle
           style="fill:#000000;stroke:none;stroke-width:1.75998;stroke-linecap:round;stroke-linejoin:round;stroke-dasharray:none;stroke-opacity:1;paint-order:stroke fill markers;stop-color:#000000"
           id="use3632"
           cx="-371.5249"
           cy="159.5"
           r="1.9052323" /><circle
           style="fill:#000000;stroke:none;stroke-width:1.75998;stroke-linecap:round;stroke-linejoin:round;stroke-dasharray:none;stroke-opacity:1;paint-order:stroke fill markers;stop-color:#000000"
           id="use3634"
           cx="-376.28806"
           cy="167.75"
           r="1.9052323" /><circle
           style="fill:#000000;stroke:none;stroke-width:1.75998;stroke-linecap:round;stroke-linejoin:round;stroke-dasharray:none;stroke-opacity:1;paint-order:stroke fill markers;stop-color:#000000"
           id="use3636"
           cx="-366.76178"
           cy="167.75"
           r="1.9052323" /><path
           style="fill:#000000;stroke:#000000;stroke-width:1.22449;stroke-linecap:round;stroke-linejoin:round;stroke-dasharray:none;stroke-opacity:1;paint-order:stroke fill markers;stop-color:#000000"
           d="m -371.52493,164.99999 3.8105,-2.2"
           id="path3638" /><path
           style="fill:#000000;stroke:#000000;stroke-width:1.22449;stroke-linecap:round;stroke-linejoin:round;stroke-dasharray:none;stroke-opacity:1;paint-order:stroke fill markers;stop-color:#000000"
           d="m -371.52493,169.39999 v -4.4"
           id="path3640" /><path
           style="fill:#000000;stroke:#000000;stroke-width:1.22449;stroke-linecap:round;stroke-linejoin:round;stroke-dasharray:none;stroke-opacity:1;paint-order:stroke fill markers;stop-color:#000000"
           d="m -375.33543,162.79999 3.8105,2.2"
           id="path3642" /></g></g><g
       aria-label="NO AI USED"
       id="text3676"
       style="font-size:6.80156px;line-height:1;font-family:Archivo;-inkscape-font-specification:'Archivo, @wght=638,wdth=64.0';font-variant-ligatures:discretionary-ligatures;font-variation-settings:'wdth' 64, 'wght' 638;text-align:justify;stroke-width:0.808244;stroke-linecap:round;stroke-linejoin:round;paint-order:stroke fill markers;stop-color:#000000"
       transform="translate(-0.08968183,3.6176443e-5)"><path
         d="m -361.46544,257.0249 v -4.67267 h 0.78898 l 1.00663,2.38735 q 0.0204,0.0476 0.0476,0.12923 0.034,0.0748 0.0612,0.16324 0.0272,0.0816 0.0476,0.16323 h 0.034 q -0.007,-0.12923 -0.007,-0.25846 0,-0.12923 0,-0.19724 v -2.38735 h 0.78898 v 4.67267 h -0.78218 l -1.01343,-2.40775 q -0.0272,-0.0816 -0.0748,-0.21765 -0.0408,-0.13603 -0.0816,-0.28567 h -0.0272 q 0.007,0.10203 0.007,0.24486 0,0.14283 0,0.25846 v 2.40775 z"
         id="path11408" /><path
         d="m -356.4867,257.10652 q -0.53732,0 -0.89781,-0.25166 -0.36048,-0.25846 -0.54412,-0.78898 -0.18364,-0.53732 -0.18364,-1.37391 0,-0.83659 0.18364,-1.36712 0.18364,-0.53732 0.54412,-0.79578 0.36049,-0.25846 0.89781,-0.25846 0.53732,0 0.8978,0.25846 0.36049,0.25846 0.53733,0.79578 0.18364,0.53053 0.18364,1.36712 0,0.83659 -0.18364,1.37391 -0.17684,0.53052 -0.53733,0.78898 -0.36048,0.25166 -0.8978,0.25166 z m 0,-0.71416 q 0.20405,0 0.34688,-0.0884 0.14283,-0.0952 0.23805,-0.27207 0.10203,-0.17684 0.14284,-0.4421 0.0476,-0.26526 0.0476,-0.61894 v -0.57133 q 0,-0.35368 -0.0476,-0.61894 -0.0408,-0.26526 -0.14284,-0.4353 -0.0952,-0.17684 -0.23805,-0.26526 -0.14283,-0.0952 -0.34688,-0.0952 -0.20405,0 -0.35368,0.0952 -0.14284,0.0884 -0.23806,0.26526 -0.0952,0.17004 -0.14283,0.4353 -0.0408,0.26526 -0.0408,0.61894 v 0.57133 q 0,0.35368 0.0408,0.61894 0.0476,0.26526 0.14283,0.4421 0.0952,0.17685 0.23806,0.27207 0.14963,0.0884 0.35368,0.0884 z"
         id="path11410" /><path
         d="m -353.7661,257.0249 1.09505,-4.67267 h 1.08825 l 1.09505,4.67267 h -0.8706 l -0.23125,-1.04744 h -1.10866 l -0.22445,1.04744 z m 1.19027,-1.748 h 0.8638 l -0.28567,-1.43513 q -0.0136,-0.0476 -0.0272,-0.12243 -0.0136,-0.0816 -0.034,-0.17684 -0.0136,-0.0952 -0.034,-0.19044 -0.0136,-0.10202 -0.0272,-0.18364 h -0.0408 q -0.0136,0.10202 -0.0408,0.23125 -0.0204,0.12243 -0.0408,0.24486 -0.0204,0.12243 -0.034,0.19724 z"
         id="path11412" /><path
         d="m -350.13408,257.0249 v -4.67267 h 0.83659 v 4.67267 z"
         id="path11414" /><path
         d="m -360.12553,263.90808 q -0.4217,0 -0.72777,-0.14283 -0.30607,-0.14283 -0.47611,-0.48971 -0.17004,-0.35369 -0.17004,-0.95222 v -3.16953 h 0.83659 v 3.23754 q 0,0.4081 0.12243,0.60534 0.12243,0.19725 0.4149,0.19725 0.29926,0 0.42849,-0.19725 0.12923,-0.19724 0.12923,-0.60534 v -3.23754 h 0.82979 v 3.16953 q 0,0.59853 -0.17003,0.95222 -0.17004,0.34688 -0.48292,0.48971 -0.30607,0.14283 -0.73456,0.14283 z"
         id="path11416" /><path
         d="m -356.8676,263.90808 q -0.29247,0 -0.54412,-0.0612 -0.25166,-0.0612 -0.4353,-0.21765 -0.18365,-0.16324 -0.28567,-0.4353 -0.10202,-0.27887 -0.10202,-0.70737 0,-0.034 0,-0.068 0,-0.034 0,-0.0612 h 0.80258 q 0,0.034 0,0.068 0,0.034 0,0.068 0,0.25846 0.0544,0.41489 0.0612,0.15644 0.17684,0.22445 0.12243,0.0612 0.31288,0.0612 0.10882,0 0.19044,-0.0204 0.0884,-0.0272 0.15644,-0.0748 0.068,-0.0544 0.10882,-0.12923 0.0476,-0.0748 0.068,-0.17684 0.0204,-0.10203 0.0204,-0.23806 0,-0.19044 -0.0816,-0.31287 -0.0748,-0.12923 -0.21085,-0.21765 -0.12923,-0.0952 -0.29246,-0.16324 -0.15644,-0.0748 -0.33328,-0.14963 -0.17004,-0.0816 -0.33328,-0.18364 -0.15643,-0.10203 -0.29246,-0.25166 -0.12923,-0.14964 -0.21085,-0.35368 -0.0748,-0.21085 -0.0748,-0.51012 0,-0.36048 0.10202,-0.61214 0.10883,-0.25846 0.29247,-0.4149 0.18364,-0.16323 0.4149,-0.23805 0.23805,-0.0748 0.50331,-0.0748 0.28567,0 0.51692,0.068 0.23806,0.068 0.40809,0.21765 0.17004,0.14963 0.25846,0.40129 0.0952,0.24486 0.0952,0.59854 v 0.14283 h -0.78899 v -0.10202 q 0,-0.19725 -0.0476,-0.33328 -0.0476,-0.13603 -0.14963,-0.20405 -0.10202,-0.0748 -0.27886,-0.0748 -0.14284,0 -0.25166,0.0544 -0.10883,0.0544 -0.17004,0.17004 -0.0544,0.11562 -0.0544,0.30607 0,0.19044 0.0748,0.31967 0.0748,0.12923 0.20405,0.22445 0.13603,0.0884 0.29247,0.16324 0.16323,0.068 0.33327,0.14283 0.17684,0.0748 0.34008,0.17684 0.16324,0.10203 0.29247,0.25166 0.13603,0.14283 0.21085,0.36048 0.0748,0.21085 0.0748,0.51012 0,0.50332 -0.17004,0.82299 -0.16323,0.31967 -0.4761,0.46931 -0.30607,0.14963 -0.72097,0.14963 z"
         id="path11418" /><path
         d="m -354.99718,263.82646 v -4.67267 h 2.53698 v 0.71416 h -1.70039 v 1.21748 h 1.47594 v 0.72777 h -1.47594 v 1.2991 h 1.7344 v 0.71416 z"
         id="path11420" /><path
         d="m -351.90247,263.82646 v -4.67267 h 1.34671 q 0.55092,0 0.891,0.24486 0.34008,0.23805 0.48971,0.75497 0.14964,0.51012 0.14964,1.3263 0,0.80939 -0.15644,1.33311 -0.14963,0.51692 -0.49651,0.76858 -0.34008,0.24485 -0.89781,0.24485 z m 0.83659,-0.71416 h 0.40809 q 0.19725,0 0.34008,-0.0612 0.14963,-0.0612 0.24486,-0.21084 0.10202,-0.14964 0.14963,-0.4081 0.0544,-0.25846 0.0544,-0.65295 v -0.50331 q 0,-0.39449 -0.0544,-0.66656 -0.0476,-0.27206 -0.14283,-0.4353 -0.0952,-0.16323 -0.24486,-0.23125 -0.14963,-0.0748 -0.34688,-0.0748 h -0.40809 z"
         id="path11422" /></g><g
       aria-label="ASSISTED BY AI"
       id="text3682"
       style="font-size:6.80156px;line-height:1;font-family:Archivo;-inkscape-font-specification:'Archivo, @wght=638,wdth=64.0';font-variant-ligatures:discretionary-ligatures;font-variation-settings:'wdth' 64, 'wght' 638;text-align:justify;stroke-width:0.808244;stroke-linecap:round;stroke-linejoin:round;paint-order:stroke fill markers;stop-color:#000000"><path
         d="m -361.55511,278.85254 1.09505,-4.67267 h 1.08825 l 1.09505,4.67267 h -0.8706 l -0.23126,-1.04744 h -1.10865 l -0.22445,1.04744 z m 1.19027,-1.748 h 0.8638 l -0.28567,-1.43513 q -0.0136,-0.0476 -0.0272,-0.12243 -0.0136,-0.0816 -0.034,-0.17684 -0.0136,-0.0952 -0.034,-0.19044 -0.0136,-0.10203 -0.0272,-0.18365 h -0.0408 q -0.0136,0.10203 -0.0408,0.23126 -0.0204,0.12243 -0.0408,0.24485 -0.0204,0.12243 -0.034,0.19725 z"
         id="path11425" /><path
         d="m -356.72602,278.93416 q -0.29246,0 -0.54412,-0.0612 -0.25166,-0.0612 -0.4353,-0.21765 -0.18364,-0.16323 -0.28567,-0.4353 -0.10202,-0.27886 -0.10202,-0.70736 0,-0.034 0,-0.068 0,-0.034 0,-0.0612 h 0.80258 q 0,0.034 0,0.068 0,0.034 0,0.068 0,0.25846 0.0544,0.4149 0.0612,0.15643 0.17684,0.22445 0.12242,0.0612 0.31287,0.0612 0.10882,0 0.19044,-0.0204 0.0884,-0.0272 0.15644,-0.0748 0.068,-0.0544 0.10882,-0.12923 0.0476,-0.0748 0.068,-0.17684 0.0204,-0.10202 0.0204,-0.23805 0,-0.19045 -0.0816,-0.31287 -0.0748,-0.12923 -0.21084,-0.21765 -0.12923,-0.0952 -0.29247,-0.16324 -0.15644,-0.0748 -0.33328,-0.14964 -0.17004,-0.0816 -0.33327,-0.18364 -0.15644,-0.10202 -0.29247,-0.25166 -0.12923,-0.14963 -0.21085,-0.35368 -0.0748,-0.21085 -0.0748,-0.51011 0,-0.36049 0.10203,-0.61214 0.10882,-0.25846 0.29246,-0.4149 0.18365,-0.16324 0.4149,-0.23805 0.23805,-0.0748 0.50331,-0.0748 0.28567,0 0.51692,0.068 0.23806,0.068 0.4081,0.21765 0.17003,0.14964 0.25846,0.4013 0.0952,0.24485 0.0952,0.59853 v 0.14284 h -0.78898 v -0.10203 q 0,-0.19724 -0.0476,-0.33327 -0.0476,-0.13603 -0.14964,-0.20405 -0.10202,-0.0748 -0.27886,-0.0748 -0.14284,0 -0.25166,0.0544 -0.10883,0.0544 -0.17004,0.17004 -0.0544,0.11563 -0.0544,0.30607 0,0.19045 0.0748,0.31968 0.0748,0.12923 0.20405,0.22445 0.13603,0.0884 0.29247,0.16324 0.16324,0.068 0.33328,0.14283 0.17684,0.0748 0.34007,0.17684 0.16324,0.10202 0.29247,0.25166 0.13603,0.14283 0.21085,0.36048 0.0748,0.21085 0.0748,0.51012 0,0.50331 -0.17004,0.82299 -0.16324,0.31967 -0.47611,0.4693 -0.30607,0.14964 -0.72097,0.14964 z"
         id="path11427" /><path
         d="m -353.65853,278.93416 q -0.29246,0 -0.54412,-0.0612 -0.25166,-0.0612 -0.4353,-0.21765 -0.18364,-0.16323 -0.28567,-0.4353 -0.10202,-0.27886 -0.10202,-0.70736 0,-0.034 0,-0.068 0,-0.034 0,-0.0612 h 0.80258 q 0,0.034 0,0.068 0,0.034 0,0.068 0,0.25846 0.0544,0.4149 0.0612,0.15643 0.17684,0.22445 0.12243,0.0612 0.31287,0.0612 0.10882,0 0.19044,-0.0204 0.0884,-0.0272 0.15644,-0.0748 0.068,-0.0544 0.10882,-0.12923 0.0476,-0.0748 0.068,-0.17684 0.0204,-0.10202 0.0204,-0.23805 0,-0.19045 -0.0816,-0.31287 -0.0748,-0.12923 -0.21085,-0.21765 -0.12923,-0.0952 -0.29247,-0.16324 -0.15644,-0.0748 -0.33328,-0.14964 -0.17004,-0.0816 -0.33327,-0.18364 -0.15644,-0.10202 -0.29247,-0.25166 -0.12923,-0.14963 -0.21085,-0.35368 -0.0748,-0.21085 -0.0748,-0.51011 0,-0.36049 0.10203,-0.61214 0.10882,-0.25846 0.29247,-0.4149 0.18364,-0.16324 0.41489,-0.23805 0.23805,-0.0748 0.50332,-0.0748 0.28566,0 0.51691,0.068 0.23806,0.068 0.4081,0.21765 0.17004,0.14964 0.25846,0.4013 0.0952,0.24485 0.0952,0.59853 v 0.14284 h -0.78898 v -0.10203 q 0,-0.19724 -0.0476,-0.33327 -0.0476,-0.13603 -0.14964,-0.20405 -0.10202,-0.0748 -0.27886,-0.0748 -0.14283,0 -0.25166,0.0544 -0.10882,0.0544 -0.17004,0.17004 -0.0544,0.11563 -0.0544,0.30607 0,0.19045 0.0748,0.31968 0.0748,0.12923 0.20404,0.22445 0.13603,0.0884 0.29247,0.16324 0.16324,0.068 0.33328,0.14283 0.17684,0.0748 0.34008,0.17684 0.16323,0.10202 0.29246,0.25166 0.13603,0.14283 0.21085,0.36048 0.0748,0.21085 0.0748,0.51012 0,0.50331 -0.17004,0.82299 -0.16324,0.31967 -0.47611,0.4693 -0.30607,0.14964 -0.72097,0.14964 z"
         id="path11429" /><path
         d="m -351.78811,278.85254 v -4.67267 h 0.83659 v 4.67267 z"
         id="path11431" /><path
         d="m -349.04708,278.93416 q -0.29247,0 -0.54413,-0.0612 -0.25166,-0.0612 -0.4353,-0.21765 -0.18364,-0.16323 -0.28566,-0.4353 -0.10203,-0.27886 -0.10203,-0.70736 0,-0.034 0,-0.068 0,-0.034 0,-0.0612 h 0.80259 q 0,0.034 0,0.068 0,0.034 0,0.068 0,0.25846 0.0544,0.4149 0.0612,0.15643 0.17684,0.22445 0.12243,0.0612 0.31287,0.0612 0.10883,0 0.19044,-0.0204 0.0884,-0.0272 0.15644,-0.0748 0.068,-0.0544 0.10883,-0.12923 0.0476,-0.0748 0.068,-0.17684 0.0204,-0.10202 0.0204,-0.23805 0,-0.19045 -0.0816,-0.31287 -0.0748,-0.12923 -0.21085,-0.21765 -0.12923,-0.0952 -0.29247,-0.16324 -0.15643,-0.0748 -0.33328,-0.14964 -0.17003,-0.0816 -0.33327,-0.18364 -0.15644,-0.10202 -0.29247,-0.25166 -0.12923,-0.14963 -0.21085,-0.35368 -0.0748,-0.21085 -0.0748,-0.51011 0,-0.36049 0.10202,-0.61214 0.10882,-0.25846 0.29247,-0.4149 0.18364,-0.16324 0.41489,-0.23805 0.23806,-0.0748 0.50332,-0.0748 0.28566,0 0.51692,0.068 0.23805,0.068 0.40809,0.21765 0.17004,0.14964 0.25846,0.4013 0.0952,0.24485 0.0952,0.59853 v 0.14284 h -0.78898 v -0.10203 q 0,-0.19724 -0.0476,-0.33327 -0.0476,-0.13603 -0.14964,-0.20405 -0.10202,-0.0748 -0.27886,-0.0748 -0.14283,0 -0.25166,0.0544 -0.10882,0.0544 -0.17004,0.17004 -0.0544,0.11563 -0.0544,0.30607 0,0.19045 0.0748,0.31968 0.0748,0.12923 0.20404,0.22445 0.13604,0.0884 0.29247,0.16324 0.16324,0.068 0.33328,0.14283 0.17684,0.0748 0.34008,0.17684 0.16323,0.10202 0.29246,0.25166 0.13603,0.14283 0.21085,0.36048 0.0748,0.21085 0.0748,0.51012 0,0.50331 -0.17004,0.82299 -0.16324,0.31967 -0.47611,0.4693 -0.30607,0.14964 -0.72096,0.14964 z"
         id="path11433" /><path
         d="m -346.41489,278.85254 v -3.95171 h -1.02024 v -0.72096 h 2.87026 v 0.72096 h -1.01343 v 3.95171 z"
         id="path11435" /><path
         d="m -344.11597,278.85254 v -4.67267 h 2.53698 v 0.71416 h -1.70039 v 1.21748 h 1.47594 v 0.72777 h -1.47594 v 1.2991 h 1.7344 v 0.71416 z"
         id="path11437" /><path
         d="m -341.02126,278.85254 v -4.67267 h 1.34671 q 0.55092,0 0.891,0.24485 0.34008,0.23806 0.48971,0.75498 0.14964,0.51011 0.14964,1.3263 0,0.80939 -0.15644,1.33311 -0.14963,0.51692 -0.49651,0.76857 -0.34008,0.24486 -0.89781,0.24486 z m 0.83659,-0.71416 h 0.40809 q 0.19725,0 0.34008,-0.0612 0.14963,-0.0612 0.24486,-0.21085 0.10202,-0.14963 0.14963,-0.40809 0.0544,-0.25846 0.0544,-0.65295 v -0.50332 q 0,-0.39449 -0.0544,-0.66655 -0.0476,-0.27206 -0.14283,-0.4353 -0.0952,-0.16324 -0.24486,-0.23125 -0.14963,-0.0748 -0.34688,-0.0748 h -0.40809 z"
         id="path11439" /><path
         d="m -361.20143,285.6541 v -4.67267 h 1.46233 q 0.40129,0 0.67336,0.13603 0.27206,0.12923 0.40809,0.38089 0.13603,0.24485 0.13603,0.59853 0,0.28567 -0.0884,0.51012 -0.0816,0.22445 -0.23125,0.37409 -0.14284,0.14963 -0.33328,0.23125 v 0.0272 q 0.20405,0.0612 0.37409,0.19044 0.17004,0.12243 0.26526,0.34688 0.0952,0.21765 0.0952,0.57133 0,0.47611 -0.19044,0.76858 -0.18365,0.28566 -0.53733,0.41489 -0.35368,0.12243 -0.85019,0.12243 z m 0.82299,-0.71416 h 0.53732 q 0.31287,0 0.4421,-0.16324 0.12923,-0.17004 0.12923,-0.51012 0,-0.19724 -0.0544,-0.34008 -0.0544,-0.14283 -0.17684,-0.21765 -0.12243,-0.0816 -0.32648,-0.0816 h -0.55092 z m 0,-1.99286 h 0.51011 q 0.18364,0 0.29927,-0.0816 0.11563,-0.0816 0.17004,-0.23125 0.0612,-0.15644 0.0612,-0.35368 0,-0.27207 -0.13603,-0.4285 -0.12923,-0.15644 -0.38769,-0.15644 h -0.51691 z"
         id="path11441" /><path
         d="m -357.11565,285.6541 v -1.87043 l -1.19027,-2.80224 h 0.8706 l 0.72777,1.89083 h 0.0408 l 0.74137,-1.89083 h 0.82298 l -1.17666,2.80224 v 1.87043 z"
         id="path11443" /><path
         d="m -354.18169,285.6541 1.09505,-4.67267 h 1.08825 l 1.09505,4.67267 h -0.8706 l -0.23126,-1.04744 h -1.10865 l -0.22445,1.04744 z m 1.19027,-1.748 h 0.8638 l -0.28567,-1.43513 q -0.0136,-0.0476 -0.0272,-0.12243 -0.0136,-0.0816 -0.034,-0.17684 -0.0136,-0.0952 -0.034,-0.19044 -0.0136,-0.10203 -0.0272,-0.18365 h -0.0408 q -0.0136,0.10203 -0.0408,0.23126 -0.0204,0.12243 -0.0408,0.24485 -0.0204,0.12243 -0.034,0.19725 z"
         id="path11445" /><path
         d="m -350.54967,285.6541 v -4.67267 h 0.83659 v 4.67267 z"
         id="path11447" /></g><g
       aria-label="MADE WITH AI"
       id="text3688"
       style="font-size:6.80156px;line-height:1;font-family:Archivo;-inkscape-font-specification:'Archivo, @wght=638,wdth=64.0';font-variant-ligatures:discretionary-ligatures;font-variation-settings:'wdth' 64, 'wght' 638;text-align:justify;stroke-width:0.808244;stroke-linecap:round;stroke-linejoin:round;paint-order:stroke fill markers;stop-color:#000000"><path
         d="m -361.26266,300.85254 v -4.67267 h 1.19027 l 0.52372,2.54378 q 0.0204,0.0816 0.0476,0.22445 0.0272,0.14284 0.0544,0.29927 0.0272,0.14964 0.0476,0.27206 h 0.0476 q 0.0136,-0.0884 0.034,-0.21765 0.0272,-0.13603 0.0544,-0.28566 0.0272,-0.14964 0.0476,-0.28567 l 0.52372,-2.55058 h 1.18347 v 4.67267 h -0.80258 v -2.73423 q 0,-0.12243 0,-0.25166 0.007,-0.13603 0.0136,-0.25846 0.007,-0.12242 0.007,-0.19724 h -0.0408 q -0.007,0.068 -0.034,0.17684 -0.0204,0.10202 -0.0408,0.22445 -0.0204,0.11563 -0.0476,0.21765 l -0.60533,2.82265 h -0.67336 l -0.60534,-2.82265 q -0.0136,-0.068 -0.034,-0.17684 -0.0204,-0.10882 -0.0476,-0.23125 -0.0204,-0.12243 -0.0408,-0.21085 h -0.034 q 0.007,0.0952 0.007,0.22445 0,0.12243 0,0.25166 0.007,0.12923 0.007,0.23125 v 2.73423 z"
         id="path11450" /><path
         d="m -357.14092,300.85254 1.09506,-4.67267 h 1.08825 l 1.09505,4.67267 h -0.8706 l -0.23126,-1.04744 h -1.10865 l -0.22445,1.04744 z m 1.19028,-1.748 h 0.8638 l -0.28567,-1.43513 q -0.0136,-0.0476 -0.0272,-0.12243 -0.0136,-0.0816 -0.034,-0.17684 -0.0136,-0.0952 -0.034,-0.19044 -0.0136,-0.10203 -0.0272,-0.18365 h -0.0408 q -0.0136,0.10203 -0.0408,0.23126 -0.0204,0.12243 -0.0408,0.24485 -0.0204,0.12243 -0.034,0.19725 z"
         id="path11452" /><path
         d="m -353.50889,300.85254 v -4.67267 h 1.34671 q 0.55092,0 0.891,0.24485 0.34008,0.23806 0.48971,0.75498 0.14964,0.51011 0.14964,1.3263 0,0.80939 -0.15644,1.33311 -0.14963,0.51692 -0.49651,0.76857 -0.34008,0.24486 -0.89781,0.24486 z m 0.83659,-0.71416 h 0.40809 q 0.19725,0 0.34008,-0.0612 0.14963,-0.0612 0.24486,-0.21085 0.10202,-0.14963 0.14963,-0.40809 0.0544,-0.25846 0.0544,-0.65295 v -0.50332 q 0,-0.39449 -0.0544,-0.66655 -0.0476,-0.27206 -0.14283,-0.4353 -0.0952,-0.16324 -0.24486,-0.23125 -0.14963,-0.0748 -0.34688,-0.0748 h -0.40809 z"
         id="path11454" /><path
         d="m -350.04691,300.85254 v -4.67267 h 2.53698 v 0.71416 h -1.70039 v 1.21748 h 1.47594 v 0.72777 h -1.47594 v 1.2991 h 1.7344 v 0.71416 z"
         id="path11456" /><path
         d="m -360.75254,307.6541 -0.80259,-4.67267 h 0.8502 l 0.29927,2.29212 q 0.0544,0.4013 0.0748,0.62575 0.0272,0.21765 0.034,0.32647 0.0136,0.10202 0.0204,0.14964 h 0.0476 q 0,-0.034 0.0136,-0.15644 0.0204,-0.12923 0.0408,-0.29927 0.0272,-0.17684 0.0544,-0.34688 0.0272,-0.17004 0.0476,-0.29927 l 0.38089,-2.29212 h 0.89101 l 0.32647,2.29212 q 0.0272,0.17684 0.0476,0.36049 0.0204,0.18364 0.0408,0.36728 0.0272,0.18364 0.0476,0.37409 h 0.0408 q 0,-0.034 0.0136,-0.15644 0.0204,-0.12243 0.0408,-0.28567 0.0272,-0.17003 0.0476,-0.34007 0.0272,-0.17684 0.0476,-0.31968 l 0.35369,-2.29212 h 0.78898 l -0.8502,4.67267 h -0.91141 l -0.35368,-2.30573 q -0.0476,-0.29927 -0.0816,-0.52372 -0.0272,-0.22445 -0.0408,-0.36728 -0.0136,-0.14284 -0.0136,-0.19725 h -0.0408 q -0.007,0.0612 -0.0408,0.26526 -0.0272,0.19725 -0.068,0.4285 -0.034,0.22445 -0.0612,0.40129 l -0.38089,2.29893 z"
         id="path11458" /><path
         d="m -356.57638,307.6541 v -4.67267 h 0.83659 v 4.67267 z"
         id="path11460" /><path
         d="m -354.27066,307.6541 v -3.95171 h -1.02024 v -0.72096 h 2.87026 v 0.72096 h -1.01343 v 3.95171 z"
         id="path11462" /><path
         d="m -351.97174,307.6541 v -4.67267 h 0.83659 v 1.93844 h 1.08825 v -1.93844 h 0.82299 v 4.67267 h -0.82299 v -2.01326 h -1.08825 v 2.01326 z"
         id="path11464" /><path
         d="m -347.99965,307.6541 1.09506,-4.67267 h 1.08825 l 1.09505,4.67267 h -0.8706 l -0.23126,-1.04744 h -1.10865 l -0.22445,1.04744 z m 1.19028,-1.748 h 0.8638 l -0.28567,-1.43513 q -0.0136,-0.0476 -0.0272,-0.12243 -0.0136,-0.0816 -0.034,-0.17684 -0.0136,-0.0952 -0.034,-0.19044 -0.0136,-0.10203 -0.0272,-0.18365 h -0.0408 q -0.0136,0.10203 -0.0408,0.23126 -0.0204,0.12243 -0.0408,0.24485 -0.0204,0.12243 -0.034,0.19725 z"
         id="path11466" /><path
         d="m -344.36762,307.6541 v -4.67267 h 0.83659 v 4.67267 z"
         id="path11468" /></g><g
       id="g312"
       transform="matrix(0.89976986,0,0,0.89976986,36.52695,113.21047)"
       style="stroke-width:1.1114"><circle
         style="fill:#000000;stroke:none;stroke-width:1.75998;stroke-linecap:round;stroke-linejoin:round;stroke-dasharray:none;stroke-opacity:1;paint-order:stroke fill markers;stop-color:#000000"
         id="circle304"
         cx="-371.5249"
         cy="181.5"
         r="1.9052323" /><circle
         style="fill:#000000;stroke:none;stroke-width:1.75998;stroke-linecap:round;stroke-linejoin:round;stroke-dasharray:none;stroke-opacity:1;paint-order:stroke fill markers;stop-color:#000000"
         id="circle306"
         cx="-376.28806"
         cy="189.74998"
         r="1.9052323" /><circle
         style="fill:#000000;stroke:none;stroke-width:1.75998;stroke-linecap:round;stroke-linejoin:round;stroke-dasharray:none;stroke-opacity:1;paint-order:stroke fill markers;stop-color:#000000"
         id="circle308"
         cx="-366.76178"
         cy="189.74998"
         r="1.9052323" /><g
         id="path310"><path
           style="color:#000000;fill:#000000;stroke-linecap:round;stroke-linejoin:round;-inkscape-stroke:none;paint-order:stroke fill markers"
           d="m -375.71094,189.13867 a 0.611265,0.611265 0 0 0 -0.61133,0.61133 0.611265,0.611265 0 0 0 0.61133,0.61133 h 8.3711 a 0.611265,0.611265 0 0 0 0.61132,-0.61133 0.611265,0.611265 0 0 0 -0.61132,-0.61133 z"
           id="path1268" /><path
           style="color:#000000;fill:#000000;stroke-width:1.22253;stroke-linecap:round;stroke-linejoin:round;-inkscape-stroke:none;paint-order:stroke fill markers"
           d="m -367.33952,189.75001 h -8.37154"
           id="path1270" /></g></g><g
       id="g326"
       transform="matrix(0.89976986,0,0,0.89976986,36.452141,115.41553)"
       style="stroke-width:1.1114"><circle
         style="fill:#000000;stroke:none;stroke-width:1.75998;stroke-linecap:round;stroke-linejoin:round;stroke-dasharray:none;stroke-opacity:1;paint-order:stroke fill markers;stop-color:#000000"
         id="circle316"
         cx="-371.5249"
         cy="203.5"
         r="1.9052323" /><circle
         style="fill:#000000;stroke:none;stroke-width:1.75998;stroke-linecap:round;stroke-linejoin:round;stroke-dasharray:none;stroke-opacity:1;paint-order:stroke fill markers;stop-color:#000000"
         id="circle318"
         cx="-376.28806"
         cy="211.74998"
         r="1.9052323" /><circle
         style="fill:#000000;stroke:none;stroke-width:1.75998;stroke-linecap:round;stroke-linejoin:round;stroke-dasharray:none;stroke-opacity:1;paint-order:stroke fill markers;stop-color:#000000"
         id="circle320"
         cx="-366.76178"
         cy="211.74998"
         r="1.9052323" /><g
         id="path322"><path
           style="color:#000000;fill:#000000;stroke-linecap:round;stroke-linejoin:round;-inkscape-stroke:none;paint-order:stroke fill markers"
           d="m -371.21875,202.9707 a 0.611265,0.611265 0 0 0 -0.83594,0.22461 l -4.76367,8.25 a 0.611265,0.611265 0 0 0 0.22461,0.83399 0.611265,0.611265 0 0 0 0.83594,-0.22461 l 4.76172,-8.25 a 0.611265,0.611265 0 0 0 -0.22266,-0.83399 z"
           id="path1280" /><path
           style="color:#000000;fill:#000000;stroke-width:1.22253;stroke-linecap:round;stroke-linejoin:round;-inkscape-stroke:none;paint-order:stroke fill markers"
           d="m -376.28804,211.75 4.76314,-8.25"
           id="path1282" /></g><g
         id="path324"><path
           style="color:#000000;fill:#000000;stroke-linecap:round;stroke-linejoin:round;-inkscape-stroke:none;paint-order:stroke fill markers"
           d="m -371.83008,202.9707 a 0.611265,0.611265 0 0 0 -0.22461,0.83399 l 4.76367,8.25 a 0.611265,0.611265 0 0 0 0.83399,0.22461 0.611265,0.611265 0 0 0 0.22461,-0.83399 l -4.76367,-8.25 a 0.611265,0.611265 0 0 0 -0.83399,-0.22461 z"
           id="path1274" /><path
           style="color:#000000;fill:#000000;stroke-width:1.22253;stroke-linecap:round;stroke-linejoin:round;-inkscape-stroke:none;paint-order:stroke fill markers"
           d="m -371.52489,203.5 4.76313,8.25"
           id="path1276" /></g></g><g
       id="g342"
       transform="matrix(0.89976986,0,0,0.89690466,36.173269,111.46161)"
       style="stroke-width:1.11317"><g
         id="g340"
         style="stroke-width:1.11317"><circle
           style="fill:#000000;stroke:none;stroke-width:1.75998;stroke-linecap:round;stroke-linejoin:round;stroke-dasharray:none;stroke-opacity:1;paint-order:stroke fill markers;stop-color:#000000"
           id="circle328"
           cx="-371.5249"
           cy="159.5"
           r="1.9052323" /><circle
           style="fill:#000000;stroke:none;stroke-width:1.75998;stroke-linecap:round;stroke-linejoin:round;stroke-dasharray:none;stroke-opacity:1;paint-order:stroke fill markers;stop-color:#000000"
           id="circle330"
           cx="-376.28806"
           cy="167.75"
           r="1.9052323" /><circle
           style="fill:#000000;stroke:none;stroke-width:1.75998;stroke-linecap:round;stroke-linejoin:round;stroke-dasharray:none;stroke-opacity:1;paint-order:stroke fill markers;stop-color:#000000"
           id="circle332"
           cx="-366.76178"
           cy="167.75"
           r="1.9052323" /><g
           id="path334"><path
             style="color:#000000;fill:#000000;stroke-linecap:round;stroke-linejoin:round;-inkscape-stroke:none;paint-order:stroke fill markers"
             d="m -367.55664,162.20898 a 0.61224502,0.61224502 0 0 0 -0.46484,0.0606 l -3.8086,2.20117 a 0.61224502,0.61224502 0 0 0 -0.22461,0.83594 0.61224502,0.61224502 0 0 0 0.83594,0.22266 l 3.81055,-2.19922 a 0.61224502,0.61224502 0 0 0 0.22461,-0.83594 0.61224502,0.61224502 0 0 0 -0.37305,-0.28516 z"
             id="path1250" /><path
             style="color:#000000;fill:#000000;stroke-width:1.22449;stroke-linecap:round;stroke-linejoin:round;-inkscape-stroke:none;paint-order:stroke fill markers"
             d="m -371.52493,164.99999 3.8105,-2.2"
             id="path1252" /></g><g
           id="path336"><path
             style="color:#000000;fill:#000000;stroke-linecap:round;stroke-linejoin:round;-inkscape-stroke:none;paint-order:stroke fill markers"
             d="M -371.52539,164.38867 A 0.61224502,0.61224502 0 0 0 -372.13672,165 v 4.40039 a 0.61224502,0.61224502 0 0 0 0.61133,0.61133 0.61224502,0.61224502 0 0 0 0.61328,-0.61133 V 165 a 0.61224502,0.61224502 0 0 0 -0.61328,-0.61133 z"
             id="path1262" /><path
             style="color:#000000;fill:#000000;stroke-width:1.22449;stroke-linecap:round;stroke-linejoin:round;-inkscape-stroke:none;paint-order:stroke fill markers"
             d="m -371.52493,169.39999 v -4.4"
             id="path1264" /></g><g
           id="path338"><path
             style="color:#000000;fill:#000000;stroke-linecap:round;stroke-linejoin:round;-inkscape-stroke:none;paint-order:stroke fill markers"
             d="m -375.49414,162.20898 a 0.61224502,0.61224502 0 0 0 -0.37109,0.28516 0.61224502,0.61224502 0 0 0 0.22461,0.83594 l 3.81054,2.19922 a 0.61224502,0.61224502 0 0 0 0.83594,-0.22266 0.61224502,0.61224502 0 0 0 -0.22461,-0.83594 l -3.81055,-2.20117 a 0.61224502,0.61224502 0 0 0 -0.46484,-0.0606 z"
             id="path1256" /><path
             style="color:#000000;fill:#000000;stroke-width:1.22449;stroke-linecap:round;stroke-linejoin:round;-inkscape-stroke:none;paint-order:stroke fill markers"
             d="m -375.33543,162.79999 3.8105,2.2"
             id="path1258" /></g></g></g><g
       id="g2568"
       transform="matrix(0.89976986,0,0,0.89976986,66.372629,113.21047)"
       style="stroke-width:1.1114"><circle
         style="fill:#000000;stroke:none;stroke-width:1.75998;stroke-linecap:round;stroke-linejoin:round;stroke-dasharray:none;stroke-opacity:1;paint-order:stroke fill markers;stop-color:#000000"
         id="circle2556"
         cx="-371.5249"
         cy="181.5"
         r="1.9052323" /><circle
         style="fill:#000000;stroke:none;stroke-width:1.75998;stroke-linecap:round;stroke-linejoin:round;stroke-dasharray:none;stroke-opacity:1;paint-order:stroke fill markers;stop-color:#000000"
         id="circle2558"
         cx="-376.28806"
         cy="189.74998"
         r="1.9052323" /><circle
         style="fill:#000000;stroke:none;stroke-width:1.75998;stroke-linecap:round;stroke-linejoin:round;stroke-dasharray:none;stroke-opacity:1;paint-order:stroke fill markers;stop-color:#000000"
         id="circle2560"
         cx="-366.76178"
         cy="189.74998"
         r="1.9052323" /><g
         id="g2566"><path
           style="color:#000000;fill:#000000;stroke-linecap:round;stroke-linejoin:round;-inkscape-stroke:none;paint-order:stroke fill markers"
           d="m -375.71094,189.13867 a 0.611265,0.611265 0 0 0 -0.61133,0.61133 0.611265,0.611265 0 0 0 0.61133,0.61133 h 8.3711 a 0.611265,0.611265 0 0 0 0.61132,-0.61133 0.611265,0.611265 0 0 0 -0.61132,-0.61133 z"
           id="path2562" /><path
           style="color:#000000;fill:#000000;stroke-width:1.22253;stroke-linecap:round;stroke-linejoin:round;-inkscape-stroke:none;paint-order:stroke fill markers"
           d="m -367.33952,189.75001 h -8.37154"
           id="path2564" /></g></g><g
       id="g2588"
       transform="matrix(0.89976986,0,0,0.89976986,66.29782,115.41553)"
       style="stroke-width:1.1114"><circle
         style="fill:#000000;stroke:none;stroke-width:1.75998;stroke-linecap:round;stroke-linejoin:round;stroke-dasharray:none;stroke-opacity:1;paint-order:stroke fill markers;stop-color:#000000"
         id="circle2570"
         cx="-371.5249"
         cy="203.5"
         r="1.9052323" /><circle
         style="fill:#000000;stroke:none;stroke-width:1.75998;stroke-linecap:round;stroke-linejoin:round;stroke-dasharray:none;stroke-opacity:1;paint-order:stroke fill markers;stop-color:#000000"
         id="circle2572"
         cx="-376.28806"
         cy="211.74998"
         r="1.9052323" /><circle
         style="fill:#000000;stroke:none;stroke-width:1.75998;stroke-linecap:round;stroke-linejoin:round;stroke-dasharray:none;stroke-opacity:1;paint-order:stroke fill markers;stop-color:#000000"
         id="circle2574"
         cx="-366.76178"
         cy="211.74998"
         r="1.9052323" /><g
         id="g2580"><path
           style="color:#000000;fill:#000000;stroke-linecap:round;stroke-linejoin:round;-inkscape-stroke:none;paint-order:stroke fill markers"
           d="m -371.21875,202.9707 a 0.611265,0.611265 0 0 0 -0.83594,0.22461 l -4.76367,8.25 a 0.611265,0.611265 0 0 0 0.22461,0.83399 0.611265,0.611265 0 0 0 0.83594,-0.22461 l 4.76172,-8.25 a 0.611265,0.611265 0 0 0 -0.22266,-0.83399 z"
           id="path2576" /><path
           style="color:#000000;fill:#000000;stroke-width:1.22253;stroke-linecap:round;stroke-linejoin:round;-inkscape-stroke:none;paint-order:stroke fill markers"
           d="m -376.28804,211.75 4.76314,-8.25"
           id="path2578" /></g><g
         id="g2586"><path
           style="color:#000000;fill:#000000;stroke-linecap:round;stroke-linejoin:round;-inkscape-stroke:none;paint-order:stroke fill markers"
           d="m -371.83008,202.9707 a 0.611265,0.611265 0 0 0 -0.22461,0.83399 l 4.76367,8.25 a 0.611265,0.611265 0 0 0 0.83399,0.22461 0.611265,0.611265 0 0 0 0.22461,-0.83399 l -4.76367,-8.25 a 0.611265,0.611265 0 0 0 -0.83399,-0.22461 z"
           id="path2582" /><path
           style="color:#000000;fill:#000000;stroke-width:1.22253;stroke-linecap:round;stroke-linejoin:round;-inkscape-stroke:none;paint-order:stroke fill markers"
           d="m -371.52489,203.5 4.76313,8.25"
           id="path2584" /></g></g><g
       id="g2616"
       transform="matrix(0.89976986,0,0,0.89690466,66.018948,111.46161)"
       style="stroke-width:1.11317"><g
         id="g2614"
         style="stroke-width:1.11317"><circle
           style="fill:#000000;stroke:none;stroke-width:1.75998;stroke-linecap:round;stroke-linejoin:round;stroke-dasharray:none;stroke-opacity:1;paint-order:stroke fill markers;stop-color:#000000"
           id="circle2590"
           cx="-371.5249"
           cy="159.5"
           r="1.9052323" /><circle
           style="fill:#000000;stroke:none;stroke-width:1.75998;stroke-linecap:round;stroke-linejoin:round;stroke-dasharray:none;stroke-opacity:1;paint-order:stroke fill markers;stop-color:#000000"
           id="circle2592"
           cx="-376.28806"
           cy="167.75"
           r="1.9052323" /><circle
           style="fill:#000000;stroke:none;stroke-width:1.75998;stroke-linecap:round;stroke-linejoin:round;stroke-dasharray:none;stroke-opacity:1;paint-order:stroke fill markers;stop-color:#000000"
           id="circle2594"
           cx="-366.76178"
           cy="167.75"
           r="1.9052323" /><g
           id="g2600"><path
             style="color:#000000;fill:#000000;stroke-linecap:round;stroke-linejoin:round;-inkscape-stroke:none;paint-order:stroke fill markers"
             d="m -367.55664,162.20898 a 0.61224502,0.61224502 0 0 0 -0.46484,0.0606 l -3.8086,2.20117 a 0.61224502,0.61224502 0 0 0 -0.22461,0.83594 0.61224502,0.61224502 0 0 0 0.83594,0.22266 l 3.81055,-2.19922 a 0.61224502,0.61224502 0 0 0 0.22461,-0.83594 0.61224502,0.61224502 0 0 0 -0.37305,-0.28516 z"
             id="path2596" /><path
             style="color:#000000;fill:#000000;stroke-width:1.22449;stroke-linecap:round;stroke-linejoin:round;-inkscape-stroke:none;paint-order:stroke fill markers"
             d="m -371.52493,164.99999 3.8105,-2.2"
             id="path2598" /></g><g
           id="g2606"><path
             style="color:#000000;fill:#000000;stroke-linecap:round;stroke-linejoin:round;-inkscape-stroke:none;paint-order:stroke fill markers"
             d="M -371.52539,164.38867 A 0.61224502,0.61224502 0 0 0 -372.13672,165 v 4.40039 a 0.61224502,0.61224502 0 0 0 0.61133,0.61133 0.61224502,0.61224502 0 0 0 0.61328,-0.61133 V 165 a 0.61224502,0.61224502 0 0 0 -0.61328,-0.61133 z"
             id="path2602" /><path
             style="color:#000000;fill:#000000;stroke-width:1.22449;stroke-linecap:round;stroke-linejoin:round;-inkscape-stroke:none;paint-order:stroke fill markers"
             d="m -371.52493,169.39999 v -4.4"
             id="path2604" /></g><g
           id="g2612"><path
             style="color:#000000;fill:#000000;stroke-linecap:round;stroke-linejoin:round;-inkscape-stroke:none;paint-order:stroke fill markers"
             d="m -375.49414,162.20898 a 0.61224502,0.61224502 0 0 0 -0.37109,0.28516 0.61224502,0.61224502 0 0 0 0.22461,0.83594 l 3.81054,2.19922 a 0.61224502,0.61224502 0 0 0 0.83594,-0.22266 0.61224502,0.61224502 0 0 0 -0.22461,-0.83594 l -3.81055,-2.20117 a 0.61224502,0.61224502 0 0 0 -0.46484,-0.0606 z"
             id="path2608" /><path
             style="color:#000000;fill:#000000;stroke-width:1.22449;stroke-linecap:round;stroke-linejoin:round;-inkscape-stroke:none;paint-order:stroke fill markers"
             d="m -375.33543,162.79999 3.8105,2.2"
             id="path2610" /></g></g></g><g
       id="g15375"><g
         id="g11494"
         transform="translate(-11.307382,-5.5144597)"
         style="filter:url(#filter14042)"><rect
           style="fill:#83fbdb;fill-opacity:1;stroke:none;stroke-width:1.2;stroke-linecap:round;stroke-linejoin:round;stroke-dasharray:none;stroke-opacity:1;paint-order:stroke fill markers;stop-color:#000000"
           id="rect11343"
           width="44.408848"
           height="14.913598"
           x="-370.57474"
           y="344.34634" /><g
           id="g11355"
           transform="matrix(0.89976986,0,0,0.89976986,-27.799114,184.78337)"
           style="stroke-width:1.1114"><circle
             style="fill:#000000;stroke:none;stroke-width:1.75998;stroke-linecap:round;stroke-linejoin:round;stroke-dasharray:none;stroke-opacity:1;paint-order:stroke fill markers;stop-color:#000000"
             id="circle11347"
             cx="-371.5249"
             cy="181.5"
             r="1.9052323" /><circle
             style="fill:#000000;stroke:none;stroke-width:1.75998;stroke-linecap:round;stroke-linejoin:round;stroke-dasharray:none;stroke-opacity:1;paint-order:stroke fill markers;stop-color:#000000"
             id="circle11349"
             cx="-376.28806"
             cy="189.74998"
             r="1.9052323" /><circle
             style="fill:#000000;stroke:none;stroke-width:1.75998;stroke-linecap:round;stroke-linejoin:round;stroke-dasharray:none;stroke-opacity:1;paint-order:stroke fill markers;stop-color:#000000"
             id="circle11351"
             cx="-366.76178"
             cy="189.74998"
             r="1.9052323" /><path
             style="fill:#000000;stroke:#000000;stroke-width:1.22253;stroke-linecap:round;stroke-linejoin:round;stroke-dasharray:none;stroke-opacity:1;paint-order:stroke fill markers;stop-color:#000000"
             d="m -367.33952,189.75001 h -8.37154"
             id="path11353" /></g><g
           aria-label="ASSISTED BY AI"
           id="g11430"
           style="font-size:6.80156px;line-height:1;font-family:Archivo;-inkscape-font-specification:'Archivo, @wght=638,wdth=64.0';font-variant-ligatures:discretionary-ligatures;font-variation-settings:'wdth' 64, 'wght' 638;text-align:justify;stroke-width:0.808244;stroke-linecap:round;stroke-linejoin:round;paint-order:stroke fill markers;stop-color:#000000"
           transform="translate(9.8432504,71.886165)"><path
             d="m -361.55511,278.85254 1.09505,-4.67267 h 1.08825 l 1.09505,4.67267 h -0.8706 l -0.23126,-1.04744 h -1.10865 l -0.22445,1.04744 z m 1.19027,-1.748 h 0.8638 l -0.28567,-1.43513 q -0.0136,-0.0476 -0.0272,-0.12243 -0.0136,-0.0816 -0.034,-0.17684 -0.0136,-0.0952 -0.034,-0.19044 -0.0136,-0.10203 -0.0272,-0.18365 h -0.0408 q -0.0136,0.10203 -0.0408,0.23126 -0.0204,0.12243 -0.0408,0.24485 -0.0204,0.12243 -0.034,0.19725 z"
             id="path11405" /><path
             d="m -356.72602,278.93416 q -0.29246,0 -0.54412,-0.0612 -0.25166,-0.0612 -0.4353,-0.21765 -0.18364,-0.16323 -0.28567,-0.4353 -0.10202,-0.27886 -0.10202,-0.70736 0,-0.034 0,-0.068 0,-0.034 0,-0.0612 h 0.80258 q 0,0.034 0,0.068 0,0.034 0,0.068 0,0.25846 0.0544,0.4149 0.0612,0.15643 0.17684,0.22445 0.12242,0.0612 0.31287,0.0612 0.10882,0 0.19044,-0.0204 0.0884,-0.0272 0.15644,-0.0748 0.068,-0.0544 0.10882,-0.12923 0.0476,-0.0748 0.068,-0.17684 0.0204,-0.10202 0.0204,-0.23805 0,-0.19045 -0.0816,-0.31287 -0.0748,-0.12923 -0.21084,-0.21765 -0.12923,-0.0952 -0.29247,-0.16324 -0.15644,-0.0748 -0.33328,-0.14964 -0.17004,-0.0816 -0.33327,-0.18364 -0.15644,-0.10202 -0.29247,-0.25166 -0.12923,-0.14963 -0.21085,-0.35368 -0.0748,-0.21085 -0.0748,-0.51011 0,-0.36049 0.10203,-0.61214 0.10882,-0.25846 0.29246,-0.4149 0.18365,-0.16324 0.4149,-0.23805 0.23805,-0.0748 0.50331,-0.0748 0.28567,0 0.51692,0.068 0.23806,0.068 0.4081,0.21765 0.17003,0.14964 0.25846,0.4013 0.0952,0.24485 0.0952,0.59853 v 0.14284 h -0.78898 v -0.10203 q 0,-0.19724 -0.0476,-0.33327 -0.0476,-0.13603 -0.14964,-0.20405 -0.10202,-0.0748 -0.27886,-0.0748 -0.14284,0 -0.25166,0.0544 -0.10883,0.0544 -0.17004,0.17004 -0.0544,0.11563 -0.0544,0.30607 0,0.19045 0.0748,0.31968 0.0748,0.12923 0.20405,0.22445 0.13603,0.0884 0.29247,0.16324 0.16324,0.068 0.33328,0.14283 0.17684,0.0748 0.34007,0.17684 0.16324,0.10202 0.29247,0.25166 0.13603,0.14283 0.21085,0.36048 0.0748,0.21085 0.0748,0.51012 0,0.50331 -0.17004,0.82299 -0.16324,0.31967 -0.47611,0.4693 -0.30607,0.14964 -0.72097,0.14964 z"
             id="path11407" /><path
             d="m -353.65853,278.93416 q -0.29246,0 -0.54412,-0.0612 -0.25166,-0.0612 -0.4353,-0.21765 -0.18364,-0.16323 -0.28567,-0.4353 -0.10202,-0.27886 -0.10202,-0.70736 0,-0.034 0,-0.068 0,-0.034 0,-0.0612 h 0.80258 q 0,0.034 0,0.068 0,0.034 0,0.068 0,0.25846 0.0544,0.4149 0.0612,0.15643 0.17684,0.22445 0.12243,0.0612 0.31287,0.0612 0.10882,0 0.19044,-0.0204 0.0884,-0.0272 0.15644,-0.0748 0.068,-0.0544 0.10882,-0.12923 0.0476,-0.0748 0.068,-0.17684 0.0204,-0.10202 0.0204,-0.23805 0,-0.19045 -0.0816,-0.31287 -0.0748,-0.12923 -0.21085,-0.21765 -0.12923,-0.0952 -0.29247,-0.16324 -0.15644,-0.0748 -0.33328,-0.14964 -0.17004,-0.0816 -0.33327,-0.18364 -0.15644,-0.10202 -0.29247,-0.25166 -0.12923,-0.14963 -0.21085,-0.35368 -0.0748,-0.21085 -0.0748,-0.51011 0,-0.36049 0.10203,-0.61214 0.10882,-0.25846 0.29247,-0.4149 0.18364,-0.16324 0.41489,-0.23805 0.23805,-0.0748 0.50332,-0.0748 0.28566,0 0.51691,0.068 0.23806,0.068 0.4081,0.21765 0.17004,0.14964 0.25846,0.4013 0.0952,0.24485 0.0952,0.59853 v 0.14284 h -0.78898 v -0.10203 q 0,-0.19724 -0.0476,-0.33327 -0.0476,-0.13603 -0.14964,-0.20405 -0.10202,-0.0748 -0.27886,-0.0748 -0.14283,0 -0.25166,0.0544 -0.10882,0.0544 -0.17004,0.17004 -0.0544,0.11563 -0.0544,0.30607 0,0.19045 0.0748,0.31968 0.0748,0.12923 0.20404,0.22445 0.13603,0.0884 0.29247,0.16324 0.16324,0.068 0.33328,0.14283 0.17684,0.0748 0.34008,0.17684 0.16323,0.10202 0.29246,0.25166 0.13603,0.14283 0.21085,0.36048 0.0748,0.21085 0.0748,0.51012 0,0.50331 -0.17004,0.82299 -0.16324,0.31967 -0.47611,0.4693 -0.30607,0.14964 -0.72097,0.14964 z"
             id="path11409" /><path
             d="m -351.78811,278.85254 v -4.67267 h 0.83659 v 4.67267 z"
             id="path11411" /><path
             d="m -349.04708,278.93416 q -0.29247,0 -0.54413,-0.0612 -0.25166,-0.0612 -0.4353,-0.21765 -0.18364,-0.16323 -0.28566,-0.4353 -0.10203,-0.27886 -0.10203,-0.70736 0,-0.034 0,-0.068 0,-0.034 0,-0.0612 h 0.80259 q 0,0.034 0,0.068 0,0.034 0,0.068 0,0.25846 0.0544,0.4149 0.0612,0.15643 0.17684,0.22445 0.12243,0.0612 0.31287,0.0612 0.10883,0 0.19044,-0.0204 0.0884,-0.0272 0.15644,-0.0748 0.068,-0.0544 0.10883,-0.12923 0.0476,-0.0748 0.068,-0.17684 0.0204,-0.10202 0.0204,-0.23805 0,-0.19045 -0.0816,-0.31287 -0.0748,-0.12923 -0.21085,-0.21765 -0.12923,-0.0952 -0.29247,-0.16324 -0.15643,-0.0748 -0.33328,-0.14964 -0.17003,-0.0816 -0.33327,-0.18364 -0.15644,-0.10202 -0.29247,-0.25166 -0.12923,-0.14963 -0.21085,-0.35368 -0.0748,-0.21085 -0.0748,-0.51011 0,-0.36049 0.10202,-0.61214 0.10882,-0.25846 0.29247,-0.4149 0.18364,-0.16324 0.41489,-0.23805 0.23806,-0.0748 0.50332,-0.0748 0.28566,0 0.51692,0.068 0.23805,0.068 0.40809,0.21765 0.17004,0.14964 0.25846,0.4013 0.0952,0.24485 0.0952,0.59853 v 0.14284 h -0.78898 v -0.10203 q 0,-0.19724 -0.0476,-0.33327 -0.0476,-0.13603 -0.14964,-0.20405 -0.10202,-0.0748 -0.27886,-0.0748 -0.14283,0 -0.25166,0.0544 -0.10882,0.0544 -0.17004,0.17004 -0.0544,0.11563 -0.0544,0.30607 0,0.19045 0.0748,0.31968 0.0748,0.12923 0.20404,0.22445 0.13604,0.0884 0.29247,0.16324 0.16324,0.068 0.33328,0.14283 0.17684,0.0748 0.34008,0.17684 0.16323,0.10202 0.29246,0.25166 0.13603,0.14283 0.21085,0.36048 0.0748,0.21085 0.0748,0.51012 0,0.50331 -0.17004,0.82299 -0.16324,0.31967 -0.47611,0.4693 -0.30607,0.14964 -0.72096,0.14964 z"
             id="path11413" /><path
             d="m -346.41489,278.85254 v -3.95171 h -1.02024 v -0.72096 h 2.87026 v 0.72096 h -1.01343 v 3.95171 z"
             id="path11415" /><path
             d="m -344.11597,278.85254 v -4.67267 h 2.53698 v 0.71416 h -1.70039 v 1.21748 h 1.47594 v 0.72777 h -1.47594 v 1.2991 h 1.7344 v 0.71416 z"
             id="path11417" /><path
             d="m -341.02126,278.85254 v -4.67267 h 1.34671 q 0.55092,0 0.891,0.24485 0.34008,0.23806 0.48971,0.75498 0.14964,0.51011 0.14964,1.3263 0,0.80939 -0.15644,1.33311 -0.14963,0.51692 -0.49651,0.76857 -0.34008,0.24486 -0.89781,0.24486 z m 0.83659,-0.71416 h 0.40809 q 0.19725,0 0.34008,-0.0612 0.14963,-0.0612 0.24486,-0.21085 0.10202,-0.14963 0.14963,-0.40809 0.0544,-0.25846 0.0544,-0.65295 v -0.50332 q 0,-0.39449 -0.0544,-0.66655 -0.0476,-0.27206 -0.14283,-0.4353 -0.0952,-0.16324 -0.24486,-0.23125 -0.14963,-0.0748 -0.34688,-0.0748 h -0.40809 z"
             id="path11419" /><path
             d="m -361.20143,285.6541 v -4.67267 h 1.46233 q 0.40129,0 0.67336,0.13603 0.27206,0.12923 0.40809,0.38089 0.13603,0.24485 0.13603,0.59853 0,0.28567 -0.0884,0.51012 -0.0816,0.22445 -0.23125,0.37409 -0.14284,0.14963 -0.33328,0.23125 v 0.0272 q 0.20405,0.0612 0.37409,0.19044 0.17004,0.12243 0.26526,0.34688 0.0952,0.21765 0.0952,0.57133 0,0.47611 -0.19044,0.76858 -0.18365,0.28566 -0.53733,0.41489 -0.35368,0.12243 -0.85019,0.12243 z m 0.82299,-0.71416 h 0.53732 q 0.31287,0 0.4421,-0.16324 0.12923,-0.17004 0.12923,-0.51012 0,-0.19724 -0.0544,-0.34008 -0.0544,-0.14283 -0.17684,-0.21765 -0.12243,-0.0816 -0.32648,-0.0816 h -0.55092 z m 0,-1.99286 h 0.51011 q 0.18364,0 0.29927,-0.0816 0.11563,-0.0816 0.17004,-0.23125 0.0612,-0.15644 0.0612,-0.35368 0,-0.27207 -0.13603,-0.4285 -0.12923,-0.15644 -0.38769,-0.15644 h -0.51691 z"
             id="path11421" /><path
             d="m -357.11565,285.6541 v -1.87043 l -1.19027,-2.80224 h 0.8706 l 0.72777,1.89083 h 0.0408 l 0.74137,-1.89083 h 0.82298 l -1.17666,2.80224 v 1.87043 z"
             id="path11423" /><path
             d="m -354.18169,285.6541 1.09505,-4.67267 h 1.08825 l 1.09505,4.67267 h -0.8706 l -0.23126,-1.04744 h -1.10865 l -0.22445,1.04744 z m 1.19027,-1.748 h 0.8638 l -0.28567,-1.43513 q -0.0136,-0.0476 -0.0272,-0.12243 -0.0136,-0.0816 -0.034,-0.17684 -0.0136,-0.0952 -0.034,-0.19044 -0.0136,-0.10203 -0.0272,-0.18365 h -0.0408 q -0.0136,0.10203 -0.0408,0.23126 -0.0204,0.12243 -0.0408,0.24485 -0.0204,0.12243 -0.034,0.19725 z"
             id="path11426" /><path
             d="m -350.54967,285.6541 v -4.67267 h 0.83659 v 4.67267 z"
             id="path11428" /></g></g><g
         id="g11473"
         transform="translate(-9.0547116,-11.937711)"
         style="filter:url(#filter14030)"><rect
           style="fill:#94caea;fill-opacity:1;stroke:none;stroke-width:1.2;stroke-linecap:round;stroke-linejoin:round;stroke-dasharray:none;stroke-opacity:1;paint-order:stroke fill markers;stop-color:#000000"
           id="rect11357"
           width="39.022007"
           height="14.913598"
           x="-366.40259"
           y="364.52792" /><g
           id="g11369"
           transform="matrix(0.89976986,0,0,0.89976986,-23.701785,185.17002)"
           style="stroke-width:1.1114"><circle
             style="fill:#000000;stroke:none;stroke-width:1.75998;stroke-linecap:round;stroke-linejoin:round;stroke-dasharray:none;stroke-opacity:1;paint-order:stroke fill markers;stop-color:#000000"
             id="circle11359"
             cx="-371.5249"
             cy="203.5"
             r="1.9052323" /><circle
             style="fill:#000000;stroke:none;stroke-width:1.75998;stroke-linecap:round;stroke-linejoin:round;stroke-dasharray:none;stroke-opacity:1;paint-order:stroke fill markers;stop-color:#000000"
             id="circle11361"
             cx="-376.28806"
             cy="211.74998"
             r="1.9052323" /><circle
             style="fill:#000000;stroke:none;stroke-width:1.75998;stroke-linecap:round;stroke-linejoin:round;stroke-dasharray:none;stroke-opacity:1;paint-order:stroke fill markers;stop-color:#000000"
             id="circle11363"
             cx="-366.76178"
             cy="211.74998"
             r="1.9052323" /><path
             style="fill:#000000;stroke:#000000;stroke-width:1.22253;stroke-linecap:round;stroke-linejoin:round;stroke-dasharray:none;stroke-opacity:1;paint-order:stroke fill markers;stop-color:#000000"
             d="m -376.28804,211.75 4.76314,-8.25"
             id="path11365" /><path
             style="fill:#000000;stroke:#000000;stroke-width:1.22253;stroke-linecap:round;stroke-linejoin:round;stroke-dasharray:none;stroke-opacity:1;paint-order:stroke fill markers;stop-color:#000000"
             d="m -371.52489,203.5 4.76313,8.25"
             id="path11367" /></g><g
           aria-label="MADE WITH AI"
           id="g11453"
           style="font-size:6.80156px;line-height:1;font-family:Archivo;-inkscape-font-specification:'Archivo, @wght=638,wdth=64.0';font-variant-ligatures:discretionary-ligatures;font-variation-settings:'wdth' 64, 'wght' 638;text-align:justify;stroke-width:0.808244;stroke-linecap:round;stroke-linejoin:round;paint-order:stroke fill markers;stop-color:#000000"
           transform="translate(14.015388,70.067752)"><path
             d="m -361.26266,300.85254 v -4.67267 h 1.19027 l 0.52372,2.54378 q 0.0204,0.0816 0.0476,0.22445 0.0272,0.14284 0.0544,0.29927 0.0272,0.14964 0.0476,0.27206 h 0.0476 q 0.0136,-0.0884 0.034,-0.21765 0.0272,-0.13603 0.0544,-0.28566 0.0272,-0.14964 0.0476,-0.28567 l 0.52372,-2.55058 h 1.18347 v 4.67267 h -0.80258 v -2.73423 q 0,-0.12243 0,-0.25166 0.007,-0.13603 0.0136,-0.25846 0.007,-0.12242 0.007,-0.19724 h -0.0408 q -0.007,0.068 -0.034,0.17684 -0.0204,0.10202 -0.0408,0.22445 -0.0204,0.11563 -0.0476,0.21765 l -0.60533,2.82265 h -0.67336 l -0.60534,-2.82265 q -0.0136,-0.068 -0.034,-0.17684 -0.0204,-0.10882 -0.0476,-0.23125 -0.0204,-0.12243 -0.0408,-0.21085 h -0.034 q 0.007,0.0952 0.007,0.22445 0,0.12243 0,0.25166 0.007,0.12923 0.007,0.23125 v 2.73423 z"
             id="path11432" /><path
             d="m -357.14092,300.85254 1.09506,-4.67267 h 1.08825 l 1.09505,4.67267 h -0.8706 l -0.23126,-1.04744 h -1.10865 l -0.22445,1.04744 z m 1.19028,-1.748 h 0.8638 l -0.28567,-1.43513 q -0.0136,-0.0476 -0.0272,-0.12243 -0.0136,-0.0816 -0.034,-0.17684 -0.0136,-0.0952 -0.034,-0.19044 -0.0136,-0.10203 -0.0272,-0.18365 h -0.0408 q -0.0136,0.10203 -0.0408,0.23126 -0.0204,0.12243 -0.0408,0.24485 -0.0204,0.12243 -0.034,0.19725 z"
             id="path11434" /><path
             d="m -353.50889,300.85254 v -4.67267 h 1.34671 q 0.55092,0 0.891,0.24485 0.34008,0.23806 0.48971,0.75498 0.14964,0.51011 0.14964,1.3263 0,0.80939 -0.15644,1.33311 -0.14963,0.51692 -0.49651,0.76857 -0.34008,0.24486 -0.89781,0.24486 z m 0.83659,-0.71416 h 0.40809 q 0.19725,0 0.34008,-0.0612 0.14963,-0.0612 0.24486,-0.21085 0.10202,-0.14963 0.14963,-0.40809 0.0544,-0.25846 0.0544,-0.65295 v -0.50332 q 0,-0.39449 -0.0544,-0.66655 -0.0476,-0.27206 -0.14283,-0.4353 -0.0952,-0.16324 -0.24486,-0.23125 -0.14963,-0.0748 -0.34688,-0.0748 h -0.40809 z"
             id="path11436" /><path
             d="m -350.04691,300.85254 v -4.67267 h 2.53698 v 0.71416 h -1.70039 v 1.21748 h 1.47594 v 0.72777 h -1.47594 v 1.2991 h 1.7344 v 0.71416 z"
             id="path11438" /><path
             d="m -360.75254,307.6541 -0.80259,-4.67267 h 0.8502 l 0.29927,2.29212 q 0.0544,0.4013 0.0748,0.62575 0.0272,0.21765 0.034,0.32647 0.0136,0.10202 0.0204,0.14964 h 0.0476 q 0,-0.034 0.0136,-0.15644 0.0204,-0.12923 0.0408,-0.29927 0.0272,-0.17684 0.0544,-0.34688 0.0272,-0.17004 0.0476,-0.29927 l 0.38089,-2.29212 h 0.89101 l 0.32647,2.29212 q 0.0272,0.17684 0.0476,0.36049 0.0204,0.18364 0.0408,0.36728 0.0272,0.18364 0.0476,0.37409 h 0.0408 q 0,-0.034 0.0136,-0.15644 0.0204,-0.12243 0.0408,-0.28567 0.0272,-0.17003 0.0476,-0.34007 0.0272,-0.17684 0.0476,-0.31968 l 0.35369,-2.29212 h 0.78898 l -0.8502,4.67267 h -0.91141 l -0.35368,-2.30573 q -0.0476,-0.29927 -0.0816,-0.52372 -0.0272,-0.22445 -0.0408,-0.36728 -0.0136,-0.14284 -0.0136,-0.19725 h -0.0408 q -0.007,0.0612 -0.0408,0.26526 -0.0272,0.19725 -0.068,0.4285 -0.034,0.22445 -0.0612,0.40129 l -0.38089,2.29893 z"
             id="path11440" /><path
             d="m -356.57638,307.6541 v -4.67267 h 0.83659 v 4.67267 z"
             id="path11442" /><path
             d="m -354.27066,307.6541 v -3.95171 h -1.02024 v -0.72096 h 2.87026 v 0.72096 h -1.01343 v 3.95171 z"
             id="path11444" /><path
             d="m -351.97174,307.6541 v -4.67267 h 0.83659 v 1.93844 h 1.08825 v -1.93844 h 0.82299 v 4.67267 h -0.82299 v -2.01326 h -1.08825 v 2.01326 z"
             id="path11446" /><path
             d="m -347.99965,307.6541 1.09506,-4.67267 h 1.08825 l 1.09505,4.67267 h -0.8706 l -0.23126,-1.04744 h -1.10865 l -0.22445,1.04744 z m 1.19028,-1.748 h 0.8638 l -0.28567,-1.43513 q -0.0136,-0.0476 -0.0272,-0.12243 -0.0136,-0.0816 -0.034,-0.17684 -0.0136,-0.0952 -0.034,-0.19044 -0.0136,-0.10203 -0.0272,-0.18365 h -0.0408 q -0.0136,0.10203 -0.0408,0.23126 -0.0204,0.12243 -0.0408,0.24485 -0.0204,0.12243 -0.034,0.19725 z"
             id="path11448" /><path
             d="m -344.36762,307.6541 v -4.67267 h 0.83659 v 4.67267 z"
             id="path11451" /></g></g><g
         id="g11514"
         transform="translate(1.7598204,43.768187)"
         style="filter:url(#filter14018)"><rect
           style="fill:#f4ff80;fill-opacity:1;stroke:none;stroke-width:1.2;stroke-linecap:round;stroke-linejoin:round;stroke-dasharray:none;stroke-opacity:1;paint-order:stroke fill markers;stop-color:#000000"
           id="rect11345"
           width="33.437958"
           height="14.913598"
           x="-370.57474"
           y="322.51874" /><g
           id="g11385"
           transform="matrix(0.89976986,0,0,0.89690466,-28.152795,183.03451)"
           style="stroke-width:1.11317"><g
             id="g11383"
             style="stroke-width:1.11317"><circle
               style="fill:#000000;stroke:none;stroke-width:1.75998;stroke-linecap:round;stroke-linejoin:round;stroke-dasharray:none;stroke-opacity:1;paint-order:stroke fill markers;stop-color:#000000"
               id="circle11371"
               cx="-371.5249"
               cy="159.5"
               r="1.9052323" /><circle
               style="fill:#000000;stroke:none;stroke-width:1.75998;stroke-linecap:round;stroke-linejoin:round;stroke-dasharray:none;stroke-opacity:1;paint-order:stroke fill markers;stop-color:#000000"
               id="circle11373"
               cx="-376.28806"
               cy="167.75"
               r="1.9052323" /><circle
               style="fill:#000000;stroke:none;stroke-width:1.75998;stroke-linecap:round;stroke-linejoin:round;stroke-dasharray:none;stroke-opacity:1;paint-order:stroke fill markers;stop-color:#000000"
               id="circle11375"
               cx="-366.76178"
               cy="167.75"
               r="1.9052323" /><path
               style="fill:#000000;stroke:#000000;stroke-width:1.22449;stroke-linecap:round;stroke-linejoin:round;stroke-dasharray:none;stroke-opacity:1;paint-order:stroke fill markers;stop-color:#000000"
               d="m -371.52493,164.99999 3.8105,-2.2"
               id="path11377" /><path
               style="fill:#000000;stroke:#000000;stroke-width:1.22449;stroke-linecap:round;stroke-linejoin:round;stroke-dasharray:none;stroke-opacity:1;paint-order:stroke fill markers;stop-color:#000000"
               d="m -371.52493,169.39999 v -4.4"
               id="path11379" /><path
               style="fill:#000000;stroke:#000000;stroke-width:1.22449;stroke-linecap:round;stroke-linejoin:round;stroke-dasharray:none;stroke-opacity:1;paint-order:stroke fill markers;stop-color:#000000"
               d="m -375.33543,162.79999 3.8105,2.2"
               id="path11381" /></g></g><g
           aria-label="NO AI USED"
           id="g11403"
           style="font-size:6.80156px;line-height:1;font-family:Archivo;-inkscape-font-specification:'Archivo, @wght=638,wdth=64.0';font-variant-ligatures:discretionary-ligatures;font-variation-settings:'wdth' 64, 'wght' 638;text-align:justify;stroke-width:0.808244;stroke-linecap:round;stroke-linejoin:round;paint-order:stroke fill markers;stop-color:#000000"
           transform="translate(9.7535686,71.886201)"><path
             d="m -361.46544,257.0249 v -4.67267 h 0.78898 l 1.00663,2.38735 q 0.0204,0.0476 0.0476,0.12923 0.034,0.0748 0.0612,0.16324 0.0272,0.0816 0.0476,0.16323 h 0.034 q -0.007,-0.12923 -0.007,-0.25846 0,-0.12923 0,-0.19724 v -2.38735 h 0.78898 v 4.67267 h -0.78218 l -1.01343,-2.40775 q -0.0272,-0.0816 -0.0748,-0.21765 -0.0408,-0.13603 -0.0816,-0.28567 h -0.0272 q 0.007,0.10203 0.007,0.24486 0,0.14283 0,0.25846 v 2.40775 z"
             id="path11387" /><path
             d="m -356.4867,257.10652 q -0.53732,0 -0.89781,-0.25166 -0.36048,-0.25846 -0.54412,-0.78898 -0.18364,-0.53732 -0.18364,-1.37391 0,-0.83659 0.18364,-1.36712 0.18364,-0.53732 0.54412,-0.79578 0.36049,-0.25846 0.89781,-0.25846 0.53732,0 0.8978,0.25846 0.36049,0.25846 0.53733,0.79578 0.18364,0.53053 0.18364,1.36712 0,0.83659 -0.18364,1.37391 -0.17684,0.53052 -0.53733,0.78898 -0.36048,0.25166 -0.8978,0.25166 z m 0,-0.71416 q 0.20405,0 0.34688,-0.0884 0.14283,-0.0952 0.23805,-0.27207 0.10203,-0.17684 0.14284,-0.4421 0.0476,-0.26526 0.0476,-0.61894 v -0.57133 q 0,-0.35368 -0.0476,-0.61894 -0.0408,-0.26526 -0.14284,-0.4353 -0.0952,-0.17684 -0.23805,-0.26526 -0.14283,-0.0952 -0.34688,-0.0952 -0.20405,0 -0.35368,0.0952 -0.14284,0.0884 -0.23806,0.26526 -0.0952,0.17004 -0.14283,0.4353 -0.0408,0.26526 -0.0408,0.61894 v 0.57133 q 0,0.35368 0.0408,0.61894 0.0476,0.26526 0.14283,0.4421 0.0952,0.17685 0.23806,0.27207 0.14963,0.0884 0.35368,0.0884 z"
             id="path11389" /><path
             d="m -353.7661,257.0249 1.09505,-4.67267 h 1.08825 l 1.09505,4.67267 h -0.8706 l -0.23125,-1.04744 h -1.10866 l -0.22445,1.04744 z m 1.19027,-1.748 h 0.8638 l -0.28567,-1.43513 q -0.0136,-0.0476 -0.0272,-0.12243 -0.0136,-0.0816 -0.034,-0.17684 -0.0136,-0.0952 -0.034,-0.19044 -0.0136,-0.10202 -0.0272,-0.18364 h -0.0408 q -0.0136,0.10202 -0.0408,0.23125 -0.0204,0.12243 -0.0408,0.24486 -0.0204,0.12243 -0.034,0.19724 z"
             id="path11391" /><path
             d="m -350.13408,257.0249 v -4.67267 h 0.83659 v 4.67267 z"
             id="path11393" /><path
             d="m -360.12553,263.90808 q -0.4217,0 -0.72777,-0.14283 -0.30607,-0.14283 -0.47611,-0.48971 -0.17004,-0.35369 -0.17004,-0.95222 v -3.16953 h 0.83659 v 3.23754 q 0,0.4081 0.12243,0.60534 0.12243,0.19725 0.4149,0.19725 0.29926,0 0.42849,-0.19725 0.12923,-0.19724 0.12923,-0.60534 v -3.23754 h 0.82979 v 3.16953 q 0,0.59853 -0.17003,0.95222 -0.17004,0.34688 -0.48292,0.48971 -0.30607,0.14283 -0.73456,0.14283 z"
             id="path11395" /><path
             d="m -356.8676,263.90808 q -0.29247,0 -0.54412,-0.0612 -0.25166,-0.0612 -0.4353,-0.21765 -0.18365,-0.16324 -0.28567,-0.4353 -0.10202,-0.27887 -0.10202,-0.70737 0,-0.034 0,-0.068 0,-0.034 0,-0.0612 h 0.80258 q 0,0.034 0,0.068 0,0.034 0,0.068 0,0.25846 0.0544,0.41489 0.0612,0.15644 0.17684,0.22445 0.12243,0.0612 0.31288,0.0612 0.10882,0 0.19044,-0.0204 0.0884,-0.0272 0.15644,-0.0748 0.068,-0.0544 0.10882,-0.12923 0.0476,-0.0748 0.068,-0.17684 0.0204,-0.10203 0.0204,-0.23806 0,-0.19044 -0.0816,-0.31287 -0.0748,-0.12923 -0.21085,-0.21765 -0.12923,-0.0952 -0.29246,-0.16324 -0.15644,-0.0748 -0.33328,-0.14963 -0.17004,-0.0816 -0.33328,-0.18364 -0.15643,-0.10203 -0.29246,-0.25166 -0.12923,-0.14964 -0.21085,-0.35368 -0.0748,-0.21085 -0.0748,-0.51012 0,-0.36048 0.10202,-0.61214 0.10883,-0.25846 0.29247,-0.4149 0.18364,-0.16323 0.4149,-0.23805 0.23805,-0.0748 0.50331,-0.0748 0.28567,0 0.51692,0.068 0.23806,0.068 0.40809,0.21765 0.17004,0.14963 0.25846,0.40129 0.0952,0.24486 0.0952,0.59854 v 0.14283 h -0.78899 v -0.10202 q 0,-0.19725 -0.0476,-0.33328 -0.0476,-0.13603 -0.14963,-0.20405 -0.10202,-0.0748 -0.27886,-0.0748 -0.14284,0 -0.25166,0.0544 -0.10883,0.0544 -0.17004,0.17004 -0.0544,0.11562 -0.0544,0.30607 0,0.19044 0.0748,0.31967 0.0748,0.12923 0.20405,0.22445 0.13603,0.0884 0.29247,0.16324 0.16323,0.068 0.33327,0.14283 0.17684,0.0748 0.34008,0.17684 0.16324,0.10203 0.29247,0.25166 0.13603,0.14283 0.21085,0.36048 0.0748,0.21085 0.0748,0.51012 0,0.50332 -0.17004,0.82299 -0.16323,0.31967 -0.4761,0.46931 -0.30607,0.14963 -0.72097,0.14963 z"
             id="path11397" /><path
             d="m -354.99718,263.82646 v -4.67267 h 2.53698 v 0.71416 h -1.70039 v 1.21748 h 1.47594 v 0.72777 h -1.47594 v 1.2991 h 1.7344 v 0.71416 z"
             id="path11399" /><path
             d="m -351.90247,263.82646 v -4.67267 h 1.34671 q 0.55092,0 0.891,0.24486 0.34008,0.23805 0.48971,0.75497 0.14964,0.51012 0.14964,1.3263 0,0.80939 -0.15644,1.33311 -0.14963,0.51692 -0.49651,0.76858 -0.34008,0.24485 -0.89781,0.24485 z m 0.83659,-0.71416 h 0.40809 q 0.19725,0 0.34008,-0.0612 0.14963,-0.0612 0.24486,-0.21084 0.10202,-0.14964 0.14963,-0.4081 0.0544,-0.25846 0.0544,-0.65295 v -0.50331 q 0,-0.39449 -0.0544,-0.66656 -0.0476,-0.27206 -0.14283,-0.4353 -0.0952,-0.16323 -0.24486,-0.23125 -0.14963,-0.0748 -0.34688,-0.0748 h -0.40809 z"
             id="path11401" /></g></g><g
         id="g11651"
         transform="rotate(7.7188927,-167.83056,170.15199)"
         style="filter:url(#filter14006)"><path
           style="font-variation-settings:'wdth' 82, 'wght' 638;fill:#94caea;fill-opacity:1;stroke:#333333;stroke-width:0.02;stroke-linecap:round;stroke-linejoin:round;paint-order:stroke fill markers;stop-color:#000000"
           d="m -279.79935,376.08151 -6.35149,11.0011 a 2.749631,2.749631 59.999997 0 0 2.38125,4.12445 h 12.70298 a 2.749631,2.749631 120 0 0 2.38125,-4.12445 l -6.35149,-11.0011 a 2.74963,2.74963 0 0 0 -4.7625,0 z"
           id="path11533" /><g
           id="g11571"
           transform="matrix(0.89976986,0,0,0.89976986,56.884938,196.92861)"
           style="stroke-width:1.1114"><circle
             style="fill:#000000;stroke:none;stroke-width:1.75998;stroke-linecap:round;stroke-linejoin:round;stroke-dasharray:none;stroke-opacity:1;paint-order:stroke fill markers;stop-color:#000000"
             id="circle11553"
             cx="-371.5249"
             cy="203.5"
             r="1.9052323" /><circle
             style="fill:#000000;stroke:none;stroke-width:1.75998;stroke-linecap:round;stroke-linejoin:round;stroke-dasharray:none;stroke-opacity:1;paint-order:stroke fill markers;stop-color:#000000"
             id="circle11555"
             cx="-376.28806"
             cy="211.74998"
             r="1.9052323" /><circle
             style="fill:#000000;stroke:none;stroke-width:1.75998;stroke-linecap:round;stroke-linejoin:round;stroke-dasharray:none;stroke-opacity:1;paint-order:stroke fill markers;stop-color:#000000"
             id="circle11557"
             cx="-366.76178"
             cy="211.74998"
             r="1.9052323" /><g
             id="g11563"><path
               style="color:#000000;fill:#000000;stroke-linecap:round;stroke-linejoin:round;-inkscape-stroke:none;paint-order:stroke fill markers"
               d="m -371.21875,202.9707 a 0.611265,0.611265 0 0 0 -0.83594,0.22461 l -4.76367,8.25 a 0.611265,0.611265 0 0 0 0.22461,0.83399 0.611265,0.611265 0 0 0 0.83594,-0.22461 l 4.76172,-8.25 a 0.611265,0.611265 0 0 0 -0.22266,-0.83399 z"
               id="path11559" /><path
               style="color:#000000;fill:#000000;stroke-width:1.22253;stroke-linecap:round;stroke-linejoin:round;-inkscape-stroke:none;paint-order:stroke fill markers"
               d="m -376.28804,211.75 4.76314,-8.25"
               id="path11561" /></g><g
             id="g11569"><path
               style="color:#000000;fill:#000000;stroke-linecap:round;stroke-linejoin:round;-inkscape-stroke:none;paint-order:stroke fill markers"
               d="m -371.83008,202.9707 a 0.611265,0.611265 0 0 0 -0.22461,0.83399 l 4.76367,8.25 a 0.611265,0.611265 0 0 0 0.83399,0.22461 0.611265,0.611265 0 0 0 0.22461,-0.83399 l -4.76367,-8.25 a 0.611265,0.611265 0 0 0 -0.83399,-0.22461 z"
               id="path11565" /><path
               style="color:#000000;fill:#000000;stroke-width:1.22253;stroke-linecap:round;stroke-linejoin:round;-inkscape-stroke:none;paint-order:stroke fill markers"
               d="m -371.52489,203.5 4.76313,8.25"
               id="path11567" /></g></g></g><g
         id="g11628"
         transform="rotate(6.3012245,-413.45689,95.664494)"
         style="filter:url(#filter13994)"><path
           style="font-variation-settings:'wdth' 82, 'wght' 638;fill:#f4ff80;fill-opacity:1;stroke:#333333;stroke-width:0.02;stroke-linecap:round;stroke-linejoin:round;paint-order:stroke fill markers;stop-color:#000000"
           d="m -280.07822,332.08072 -6.35149,11.0011 a 2.749631,2.749631 59.999997 0 0 2.38125,4.12445 h 12.70298 a 2.749631,2.749631 120 0 0 2.38125,-4.12445 l -6.35149,-11.0011 a 2.74963,2.74963 0 0 0 -4.7625,0 z"
           id="path11537" /><g
           id="g11599"
           transform="matrix(0.89976986,0,0,0.89690466,56.606066,192.97469)"
           style="stroke-width:1.11317"><g
             id="g11597"
             style="stroke-width:1.11317"><circle
               style="fill:#000000;stroke:none;stroke-width:1.75998;stroke-linecap:round;stroke-linejoin:round;stroke-dasharray:none;stroke-opacity:1;paint-order:stroke fill markers;stop-color:#000000"
               id="circle11573"
               cx="-371.5249"
               cy="159.5"
               r="1.9052323" /><circle
               style="fill:#000000;stroke:none;stroke-width:1.75998;stroke-linecap:round;stroke-linejoin:round;stroke-dasharray:none;stroke-opacity:1;paint-order:stroke fill markers;stop-color:#000000"
               id="circle11575"
               cx="-376.28806"
               cy="167.75"
               r="1.9052323" /><circle
               style="fill:#000000;stroke:none;stroke-width:1.75998;stroke-linecap:round;stroke-linejoin:round;stroke-dasharray:none;stroke-opacity:1;paint-order:stroke fill markers;stop-color:#000000"
               id="circle11577"
               cx="-366.76178"
               cy="167.75"
               r="1.9052323" /><g
               id="g11583"><path
                 style="color:#000000;fill:#000000;stroke-linecap:round;stroke-linejoin:round;-inkscape-stroke:none;paint-order:stroke fill markers"
                 d="m -367.55664,162.20898 a 0.61224502,0.61224502 0 0 0 -0.46484,0.0606 l -3.8086,2.20117 a 0.61224502,0.61224502 0 0 0 -0.22461,0.83594 0.61224502,0.61224502 0 0 0 0.83594,0.22266 l 3.81055,-2.19922 a 0.61224502,0.61224502 0 0 0 0.22461,-0.83594 0.61224502,0.61224502 0 0 0 -0.37305,-0.28516 z"
                 id="path11579" /><path
                 style="color:#000000;fill:#000000;stroke-width:1.22449;stroke-linecap:round;stroke-linejoin:round;-inkscape-stroke:none;paint-order:stroke fill markers"
                 d="m -371.52493,164.99999 3.8105,-2.2"
                 id="path11581" /></g><g
               id="g11589"><path
                 style="color:#000000;fill:#000000;stroke-linecap:round;stroke-linejoin:round;-inkscape-stroke:none;paint-order:stroke fill markers"
                 d="M -371.52539,164.38867 A 0.61224502,0.61224502 0 0 0 -372.13672,165 v 4.40039 a 0.61224502,0.61224502 0 0 0 0.61133,0.61133 0.61224502,0.61224502 0 0 0 0.61328,-0.61133 V 165 a 0.61224502,0.61224502 0 0 0 -0.61328,-0.61133 z"
                 id="path11585" /><path
                 style="color:#000000;fill:#000000;stroke-width:1.22449;stroke-linecap:round;stroke-linejoin:round;-inkscape-stroke:none;paint-order:stroke fill markers"
                 d="m -371.52493,169.39999 v -4.4"
                 id="path11587" /></g><g
               id="g11595"><path
                 style="color:#000000;fill:#000000;stroke-linecap:round;stroke-linejoin:round;-inkscape-stroke:none;paint-order:stroke fill markers"
                 d="m -375.49414,162.20898 a 0.61224502,0.61224502 0 0 0 -0.37109,0.28516 0.61224502,0.61224502 0 0 0 0.22461,0.83594 l 3.81054,2.19922 a 0.61224502,0.61224502 0 0 0 0.83594,-0.22266 0.61224502,0.61224502 0 0 0 -0.22461,-0.83594 l -3.81055,-2.20117 a 0.61224502,0.61224502 0 0 0 -0.46484,-0.0606 z"
                 id="path11591" /><path
                 style="color:#000000;fill:#000000;stroke-width:1.22449;stroke-linecap:round;stroke-linejoin:round;-inkscape-stroke:none;paint-order:stroke fill markers"
                 d="m -375.33543,162.79999 3.8105,2.2"
                 id="path11593" /></g></g></g></g><g
         id="g11638"
         transform="rotate(-15.481268,-300.57869,511.90025)"
         style="filter:url(#filter13982)"><path
           style="font-variation-settings:'wdth' 82, 'wght' 638;fill:#83fbdb;fill-opacity:1;stroke:#333333;stroke-width:0.02;stroke-linecap:round;stroke-linejoin:round;paint-order:stroke fill markers;stop-color:#000000"
           d="m -279.72454,354.27661 -6.35149,11.0011 a 2.749631,2.749631 59.999997 0 0 2.38125,4.12445 h 12.70298 a 2.749631,2.749631 120 0 0 2.38125,-4.12445 l -6.35149,-11.0011 a 2.74963,2.74963 0 0 0 -4.7625,0 z"
           id="path11535" /><g
           id="g11551"
           transform="matrix(0.89976986,0,0,0.89976986,56.959747,194.72355)"
           style="stroke-width:1.1114"><circle
             style="fill:#000000;stroke:none;stroke-width:1.75998;stroke-linecap:round;stroke-linejoin:round;stroke-dasharray:none;stroke-opacity:1;paint-order:stroke fill markers;stop-color:#000000"
             id="circle11539"
             cx="-371.5249"
             cy="181.5"
             r="1.9052323" /><circle
             style="fill:#000000;stroke:none;stroke-width:1.75998;stroke-linecap:round;stroke-linejoin:round;stroke-dasharray:none;stroke-opacity:1;paint-order:stroke fill markers;stop-color:#000000"
             id="circle11541"
             cx="-376.28806"
             cy="189.74998"
             r="1.9052323" /><circle
             style="fill:#000000;stroke:none;stroke-width:1.75998;stroke-linecap:round;stroke-linejoin:round;stroke-dasharray:none;stroke-opacity:1;paint-order:stroke fill markers;stop-color:#000000"
             id="circle11543"
             cx="-366.76178"
             cy="189.74998"
             r="1.9052323" /><g
             id="g11549"><path
               style="color:#000000;fill:#000000;stroke-linecap:round;stroke-linejoin:round;-inkscape-stroke:none;paint-order:stroke fill markers"
               d="m -375.71094,189.13867 a 0.611265,0.611265 0 0 0 -0.61133,0.61133 0.611265,0.611265 0 0 0 0.61133,0.61133 h 8.3711 a 0.611265,0.611265 0 0 0 0.61132,-0.61133 0.611265,0.611265 0 0 0 -0.61132,-0.61133 z"
               id="path11545" /><path
               style="color:#000000;fill:#000000;stroke-width:1.22253;stroke-linecap:round;stroke-linejoin:round;-inkscape-stroke:none;paint-order:stroke fill markers"
               d="m -367.33952,189.75001 h -8.37154"
               id="path11547" /></g></g></g><g
         id="g12151"
         transform="translate(1.2008807,-2.6504867)"><rect
           style="font-variation-settings:'wdth' 82, 'wght' 638;fill:#f2f2f2;fill-opacity:1;stroke:#4d4d4d;stroke-width:0.05;stroke-linecap:round;stroke-linejoin:round;stroke-dasharray:none;paint-order:stroke fill markers;stop-color:#000000"
           id="rect12120"
           width="14.384881"
           height="13.061957"
           x="-267.07382"
           y="341.49237" /><g
           id="g12064"
           transform="translate(102.53794,-18.537945)"><g
             id="g11727"
             transform="matrix(0.89976986,0,0,0.89976986,-28.132392,199.54153)"
             style="stroke-width:1.1114"><circle
               style="fill:#000000;stroke:none;stroke-width:1.75998;stroke-linecap:round;stroke-linejoin:round;stroke-dasharray:none;stroke-opacity:1;paint-order:stroke fill markers;stop-color:#000000"
               id="circle11715"
               cx="-371.5249"
               cy="181.5"
               r="1.9052323" /><circle
               style="fill:#000000;stroke:none;stroke-width:1.75998;stroke-linecap:round;stroke-linejoin:round;stroke-dasharray:none;stroke-opacity:1;paint-order:stroke fill markers;stop-color:#000000"
               id="circle11717"
               cx="-376.28806"
               cy="189.74998"
               r="1.9052323" /><circle
               style="fill:#000000;stroke:none;stroke-width:1.75998;stroke-linecap:round;stroke-linejoin:round;stroke-dasharray:none;stroke-opacity:1;paint-order:stroke fill markers;stop-color:#000000"
               id="circle11719"
               cx="-366.76178"
               cy="189.74998"
               r="1.9052323" /><g
               id="g11725"><path
                 style="color:#000000;fill:#000000;stroke-linecap:round;stroke-linejoin:round;paint-order:stroke fill markers"
                 d="m -375.71094,189.13867 a 0.611265,0.611265 0 0 0 -0.61133,0.61133 0.611265,0.611265 0 0 0 0.61133,0.61133 h 8.3711 a 0.611265,0.611265 0 0 0 0.61132,-0.61133 0.611265,0.611265 0 0 0 -0.61132,-0.61133 z"
                 id="path11721" /><path
                 style="color:#000000;fill:#000000;stroke-width:1.22253;stroke-linecap:round;stroke-linejoin:round;paint-order:stroke fill markers"
                 d="m -367.33952,189.75001 h -8.37154"
                 id="path11723" /></g></g></g></g><g
         id="g12164"
         transform="translate(-9.3824543,-1.5802657)"><rect
           style="font-variation-settings:'wdth' 82, 'wght' 638;fill:#f2f2f2;fill-opacity:1;stroke:#4d4d4d;stroke-width:0.05;stroke-linecap:round;stroke-linejoin:round;stroke-dasharray:none;paint-order:stroke fill markers;stop-color:#000000"
           id="rect12041"
           width="14.384881"
           height="13.061957"
           x="-267.07382"
           y="355.06549" /><g
           id="g11747"
           transform="matrix(0.89976986,0,0,0.89976986,74.405528,174.78176)"
           style="stroke-width:1.1114"><circle
             style="fill:#000000;stroke:none;stroke-width:1.75998;stroke-linecap:round;stroke-linejoin:round;stroke-dasharray:none;stroke-opacity:1;paint-order:stroke fill markers;stop-color:#000000"
             id="circle11729"
             cx="-371.5249"
             cy="203.5"
             r="1.9052323" /><circle
             style="fill:#000000;stroke:none;stroke-width:1.75998;stroke-linecap:round;stroke-linejoin:round;stroke-dasharray:none;stroke-opacity:1;paint-order:stroke fill markers;stop-color:#000000"
             id="circle11731"
             cx="-376.28806"
             cy="211.74998"
             r="1.9052323" /><circle
             style="fill:#000000;stroke:none;stroke-width:1.75998;stroke-linecap:round;stroke-linejoin:round;stroke-dasharray:none;stroke-opacity:1;paint-order:stroke fill markers;stop-color:#000000"
             id="circle11733"
             cx="-366.76178"
             cy="211.74998"
             r="1.9052323" /><g
             id="g11739"><path
               style="color:#000000;fill:#000000;stroke-linecap:round;stroke-linejoin:round;paint-order:stroke fill markers"
               d="m -371.21875,202.9707 a 0.611265,0.611265 0 0 0 -0.83594,0.22461 l -4.76367,8.25 a 0.611265,0.611265 0 0 0 0.22461,0.83399 0.611265,0.611265 0 0 0 0.83594,-0.22461 l 4.76172,-8.25 a 0.611265,0.611265 0 0 0 -0.22266,-0.83399 z"
               id="path11735" /><path
               style="color:#000000;fill:#000000;stroke-width:1.22253;stroke-linecap:round;stroke-linejoin:round;paint-order:stroke fill markers"
               d="m -376.28804,211.75 4.76314,-8.25"
               id="path11737" /></g><g
             id="g11745"><path
               style="color:#000000;fill:#000000;stroke-linecap:round;stroke-linejoin:round;paint-order:stroke fill markers"
               d="m -371.83008,202.9707 a 0.611265,0.611265 0 0 0 -0.22461,0.83399 l 4.76367,8.25 a 0.611265,0.611265 0 0 0 0.83399,0.22461 0.611265,0.611265 0 0 0 0.22461,-0.83399 l -4.76367,-8.25 a 0.611265,0.611265 0 0 0 -0.83399,-0.22461 z"
               id="path11741" /><path
               style="color:#000000;fill:#000000;stroke-width:1.22253;stroke-linecap:round;stroke-linejoin:round;paint-order:stroke fill markers"
               d="m -371.52489,203.5 4.76313,8.25"
               id="path11743" /></g></g></g><g
         id="g12140"
         transform="translate(-19.965818,40.815028)"><rect
           style="font-variation-settings:'wdth' 82, 'wght' 638;fill:#f2f2f2;fill-opacity:1;stroke:#4d4d4d;stroke-width:0.05;stroke-linecap:round;stroke-linejoin:round;stroke-dasharray:none;paint-order:stroke fill markers;stop-color:#000000"
           id="rect12122"
           width="14.384881"
           height="13.061957"
           x="-267.07379"
           y="327.31354" /><g
           id="g12081"
           transform="translate(119.54496,-32.716787)"><g
             id="g11775"
             transform="matrix(0.89976986,0,0,0.89690466,-45.139396,219.64541)"
             style="stroke-width:1.11317"><g
               id="g11773"
               style="stroke-width:1.11317"><circle
                 style="fill:#000000;stroke:none;stroke-width:1.75998;stroke-linecap:round;stroke-linejoin:round;stroke-dasharray:none;stroke-opacity:1;paint-order:stroke fill markers;stop-color:#000000"
                 id="circle11749"
                 cx="-371.5249"
                 cy="159.5"
                 r="1.9052323" /><circle
                 style="fill:#000000;stroke:none;stroke-width:1.75998;stroke-linecap:round;stroke-linejoin:round;stroke-dasharray:none;stroke-opacity:1;paint-order:stroke fill markers;stop-color:#000000"
                 id="circle11751"
                 cx="-376.28806"
                 cy="167.75"
                 r="1.9052323" /><circle
                 style="fill:#000000;stroke:none;stroke-width:1.75998;stroke-linecap:round;stroke-linejoin:round;stroke-dasharray:none;stroke-opacity:1;paint-order:stroke fill markers;stop-color:#000000"
                 id="circle11753"
                 cx="-366.76178"
                 cy="167.75"
                 r="1.9052323" /><g
                 id="g11759"><path
                   style="color:#000000;fill:#000000;stroke-linecap:round;stroke-linejoin:round;paint-order:stroke fill markers"
                   d="m -367.55664,162.20898 a 0.61224502,0.61224502 0 0 0 -0.46484,0.0606 l -3.8086,2.20117 a 0.61224502,0.61224502 0 0 0 -0.22461,0.83594 0.61224502,0.61224502 0 0 0 0.83594,0.22266 l 3.81055,-2.19922 a 0.61224502,0.61224502 0 0 0 0.22461,-0.83594 0.61224502,0.61224502 0 0 0 -0.37305,-0.28516 z"
                   id="path11755" /><path
                   style="color:#000000;fill:#000000;stroke-width:1.22449;stroke-linecap:round;stroke-linejoin:round;paint-order:stroke fill markers"
                   d="m -371.52493,164.99999 3.8105,-2.2"
                   id="path11757" /></g><g
                 id="g11765"><path
                   style="color:#000000;fill:#000000;stroke-linecap:round;stroke-linejoin:round;paint-order:stroke fill markers"
                   d="M -371.52539,164.38867 A 0.61224502,0.61224502 0 0 0 -372.13672,165 v 4.40039 a 0.61224502,0.61224502 0 0 0 0.61133,0.61133 0.61224502,0.61224502 0 0 0 0.61328,-0.61133 V 165 a 0.61224502,0.61224502 0 0 0 -0.61328,-0.61133 z"
                   id="path11761" /><path
                   style="color:#000000;fill:#000000;stroke-width:1.22449;stroke-linecap:round;stroke-linejoin:round;paint-order:stroke fill markers"
                   d="m -371.52493,169.39999 v -4.4"
                   id="path11763" /></g><g
                 id="g11771"><path
                   style="color:#000000;fill:#000000;stroke-linecap:round;stroke-linejoin:round;paint-order:stroke fill markers"
                   d="m -375.49414,162.20898 a 0.61224502,0.61224502 0 0 0 -0.37109,0.28516 0.61224502,0.61224502 0 0 0 0.22461,0.83594 l 3.81054,2.19922 a 0.61224502,0.61224502 0 0 0 0.83594,-0.22266 0.61224502,0.61224502 0 0 0 -0.22461,-0.83594 l -3.81055,-2.20117 a 0.61224502,0.61224502 0 0 0 -0.46484,-0.0606 z"
                   id="path11767" /><path
                   style="color:#000000;fill:#000000;stroke-width:1.22449;stroke-linecap:round;stroke-linejoin:round;paint-order:stroke fill markers"
                   d="m -375.33543,162.79999 3.8105,2.2"
                   id="path11769" /></g></g></g></g></g></g></g></svg>
