<?xml version="1.0" encoding="UTF-8" standalone="no"?>
<!-- Created with Inkscape (http://www.inkscape.org/) -->

<svg
   xml:space="preserve"
   sodipodi:docname="construction.svg"
   inkscape:version="1.2.1 (1:1.2.1+202210291243+9c6d41e410)"
   id="svg5"
   version="1.1"
   viewBox="0 0 39.057747 17.87501"
   height="17.87501mm"
   width="39.057747mm"
   xmlns:inkscape="http://www.inkscape.org/namespaces/inkscape"
   xmlns:sodipodi="http://sodipodi.sourceforge.net/DTD/sodipodi-0.dtd"
   xmlns="http://www.w3.org/2000/svg"
   xmlns:svg="http://www.w3.org/2000/svg"><sodipodi:namedview
     id="namedview7"
     pagecolor="#505050"
     bordercolor="#eeeeee"
     borderopacity="1"
     inkscape:showpageshadow="0"
     inkscape:pageopacity="0"
     inkscape:pagecheckerboard="0"
     inkscape:deskcolor="#505050"
     inkscape:document-units="mm"
     showgrid="false"
     inkscape:zoom="11.313708"
     inkscape:cx="73.362329"
     inkscape:cy="32.305941"
     inkscape:window-width="1920"
     inkscape:window-height="1029"
     inkscape:window-x="0"
     inkscape:window-y="788"
     inkscape:window-maximized="1"
     inkscape:current-layer="layer1"
     showguides="false"><inkscape:grid
       type="axonomgrid"
       id="grid9637"
       enabled="true"
       visible="true"
       snapvisiblegridlinesonly="true"
       empspacing="5"
       gridanglex="30"
       gridanglez="30"
       spacingy="1.1"
       originx="424.39574"
       originy="-245.5717" /></sodipodi:namedview><defs
     id="defs2"><inkscape:path-effect
       effect="knot"
       id="path-effect1854"
       is_visible="true"
       lpeversion="1"
       switcher_size="15"
       interruption_width="3.1"
       prop_to_stroke_width="true"
       add_stroke_width="inkscape_1.0_and_up"
       both="false"
       inverse_width="false"
       add_other_stroke_width="inkscape_1.0_and_up"
       crossing_points_vector="" /><inkscape:path-effect
       effect="fillet_chamfer"
       id="path-effect1810"
       is_visible="true"
       lpeversion="1"
       nodesatellites_param="F,1,0,1,0,0.50942426,0,5 @ F,1,0,1,0,0.99987026,0,5 @ F,1,0,1,0,0.31174193,0,5 @ F,1,0,1,0,5.0998391,0,5 @ F,1,0,1,0,0.50942863,0,5 @ F,1,0,1,0,0.50942668,0,5 @ F,1,0,1,0,0.50942426,0,5 @ F,1,0,1,0,1.0002802,0,5 @ F,1,0,1,0,0.31178433,0,5 @ F,1,0,1,0,5.1512854,0,5 @ F,1,0,1,0,5.1511069,0,5 @ F,1,0,1,0,0.31173988,0,5 @ F,1,0,1,0,0.99988651,0,5 @ F,1,0,1,0,0.50942426,0,5 @ F,1,0,1,0,0.50942426,0,5 @ F,1,0,1,0,0.50942426,0,5 @ F,1,0,1,0,5.1255831,0,5 @ F,1,0,1,0,0.31165538,0,5 @ F,1,0,1,0,1.0012629,0,5 @ F,1,0,1,0,0.50942426,0,5"
       unit="px"
       method="arc"
       mode="F"
       radius="2"
       chamfer_steps="5"
       flexible="true"
       use_knot_distance="false"
       apply_no_radius="true"
       apply_with_radius="true"
       only_selected="true"
       hide_knots="false" /><inkscape:path-effect
       effect="fillet_chamfer"
       id="path-effect934"
       is_visible="true"
       lpeversion="1"
       nodesatellites_param="F,1,0,1,0,0.25,0,1 @ F,1,0,1,0,0.25,0,1 @ F,1,0,1,0,0.25,0,1"
       unit="px"
       method="auto"
       mode="F"
       radius="25"
       chamfer_steps="1"
       flexible="true"
       use_knot_distance="true"
       apply_no_radius="true"
       apply_with_radius="true"
       only_selected="false"
       hide_knots="false" /><inkscape:path-effect
       effect="fillet_chamfer"
       id="path-effect690"
       is_visible="true"
       lpeversion="1"
       nodesatellites_param="F,1,0,1,0,0.25,0,1 @ F,1,0,1,0,0.25,0,1 @ F,1,0,1,0,0.25,0,1"
       unit="px"
       method="auto"
       mode="F"
       radius="25"
       chamfer_steps="1"
       flexible="true"
       use_knot_distance="true"
       apply_no_radius="true"
       apply_with_radius="true"
       only_selected="false"
       hide_knots="false" /><inkscape:path-effect
       effect="fillet_chamfer"
       id="path-effect684"
       is_visible="true"
       lpeversion="1"
       nodesatellites_param="F,1,0,1,0,0.25,0,1 @ F,1,0,1,0,0.25,0,1 @ F,1,0,1,0,0.25,0,1"
       unit="px"
       method="auto"
       mode="F"
       radius="25"
       chamfer_steps="1"
       flexible="true"
       use_knot_distance="true"
       apply_no_radius="true"
       apply_with_radius="true"
       only_selected="false"
       hide_knots="false" /><inkscape:path-effect
       effect="bspline"
       id="path-effect580"
       is_visible="true"
       lpeversion="1"
       weight="33.333333"
       steps="2"
       helper_size="0"
       apply_no_weight="true"
       apply_with_weight="true"
       only_selected="false" /></defs><g
     inkscape:label="Layer 1"
     inkscape:groupmode="layer"
     id="layer1"
     transform="translate(424.39578,-245.57161)"><rect
       style="font-variation-settings:'wdth' 82, 'wght' 638;opacity:1;fill:#4d4d4d;stroke-width:1.1;stroke-linecap:round;stroke-linejoin:round;paint-order:stroke fill markers;stop-color:#000000;stroke:none"
       id="rect790"
       width="39.057747"
       height="17.87501"
       x="-424.39578"
       y="245.57161" /><g
       id="g7586"
       style="opacity:0.24618129;stroke:#00ffff"
       transform="translate(-5.7157686)"><g
         id="g7027"
         style="stroke:#00ffff"><path
           d="m -437.632,253.767 44.46,-25.669"
           style="font-variation-settings:'wdth' 82, 'wght' 638;opacity:0.390441;fill:#f2f2f2;stroke:#00ffff;stroke-width:0.0499999;stroke-linecap:round;stroke-linejoin:round;stroke-dasharray:none;paint-order:stroke fill markers;stop-color:#000000"
           id="path6953" /><path
           d="m -437.056,254.534 44.623,-25.763"
           style="font-variation-settings:'wdth' 82, 'wght' 638;opacity:0.390441;fill:#f2f2f2;stroke:#00ffff;stroke-width:0.0499999;stroke-linecap:round;stroke-linejoin:round;stroke-dasharray:none;paint-order:stroke fill markers;stop-color:#000000"
           id="path6955" /><path
           d="m -436.479,255.301 44.786,-25.857"
           style="font-variation-settings:'wdth' 82, 'wght' 638;opacity:0.390441;fill:#f2f2f2;stroke:#00ffff;stroke-width:0.0499999;stroke-linecap:round;stroke-linejoin:round;stroke-dasharray:none;paint-order:stroke fill markers;stop-color:#000000"
           id="path6957" /><path
           d="m -435.903,256.068 44.949,-25.951"
           style="font-variation-settings:'wdth' 82, 'wght' 638;opacity:0.390441;fill:#f2f2f2;stroke:#00ffff;stroke-width:0.0499999;stroke-linecap:round;stroke-linejoin:round;stroke-dasharray:none;paint-order:stroke fill markers;stop-color:#000000"
           id="path6959" /><path
           d="m -435.326,256.835 45.112,-26.045"
           style="font-variation-settings:'wdth' 82, 'wght' 638;opacity:0.390441;fill:#f2f2f2;stroke:#00ffff;stroke-width:0.0499999;stroke-linecap:round;stroke-linejoin:round;stroke-dasharray:none;paint-order:stroke fill markers;stop-color:#000000"
           id="path6961" /><path
           d="m -434.749,257.603 45.275,-26.14"
           style="font-variation-settings:'wdth' 82, 'wght' 638;opacity:0.390441;fill:#f2f2f2;stroke:#00ffff;stroke-width:0.0499999;stroke-linecap:round;stroke-linejoin:round;stroke-dasharray:none;paint-order:stroke fill markers;stop-color:#000000"
           id="path6963" /><path
           d="m -434.173,258.37 45.438,-26.234"
           style="font-variation-settings:'wdth' 82, 'wght' 638;opacity:0.390441;fill:#f2f2f2;stroke:#00ffff;stroke-width:0.0499999;stroke-linecap:round;stroke-linejoin:round;stroke-dasharray:none;paint-order:stroke fill markers;stop-color:#000000"
           id="path6965" /><path
           d="m -433.596,259.137 45.601,-26.328"
           style="font-variation-settings:'wdth' 82, 'wght' 638;opacity:0.390441;fill:#f2f2f2;stroke:#00ffff;stroke-width:0.0499999;stroke-linecap:round;stroke-linejoin:round;stroke-dasharray:none;paint-order:stroke fill markers;stop-color:#000000"
           id="path6967" /><path
           d="m -433.02,259.904 45.764,-26.422"
           style="font-variation-settings:'wdth' 82, 'wght' 638;opacity:0.390441;fill:#f2f2f2;stroke:#00ffff;stroke-width:0.0499999;stroke-linecap:round;stroke-linejoin:round;stroke-dasharray:none;paint-order:stroke fill markers;stop-color:#000000"
           id="path6969" /><path
           d="m -432.443,260.671 45.927,-26.516"
           style="font-variation-settings:'wdth' 82, 'wght' 638;opacity:0.390441;fill:#f2f2f2;stroke:#00ffff;stroke-width:0.0499999;stroke-linecap:round;stroke-linejoin:round;stroke-dasharray:none;paint-order:stroke fill markers;stop-color:#000000"
           id="path6971" /><path
           d="m -431.866,261.438 46.089,-26.61"
           style="font-variation-settings:'wdth' 82, 'wght' 638;opacity:0.390441;fill:#f2f2f2;stroke:#00ffff;stroke-width:0.0499999;stroke-linecap:round;stroke-linejoin:round;stroke-dasharray:none;paint-order:stroke fill markers;stop-color:#000000"
           id="path6973" /><path
           d="m -431.29,262.205 46.253,-26.704"
           style="font-variation-settings:'wdth' 82, 'wght' 638;opacity:0.390441;fill:#f2f2f2;stroke:#00ffff;stroke-width:0.0499999;stroke-linecap:round;stroke-linejoin:round;stroke-dasharray:none;paint-order:stroke fill markers;stop-color:#000000"
           id="path6975" /><path
           d="m -430.713,262.972 46.415,-26.798"
           style="font-variation-settings:'wdth' 82, 'wght' 638;opacity:0.390441;fill:#f2f2f2;stroke:#00ffff;stroke-width:0.0499999;stroke-linecap:round;stroke-linejoin:round;stroke-dasharray:none;paint-order:stroke fill markers;stop-color:#000000"
           id="path6977" /><path
           d="m -430.137,263.739 46.579,-26.892"
           style="font-variation-settings:'wdth' 82, 'wght' 638;opacity:0.390441;fill:#f2f2f2;stroke:#00ffff;stroke-width:0.0499999;stroke-linecap:round;stroke-linejoin:round;stroke-dasharray:none;paint-order:stroke fill markers;stop-color:#000000"
           id="path6979" /><path
           d="m -429.56,264.506 46.741,-26.986"
           style="font-variation-settings:'wdth' 82, 'wght' 638;opacity:0.390441;fill:#f2f2f2;stroke:#00ffff;stroke-width:0.0499999;stroke-linecap:round;stroke-linejoin:round;stroke-dasharray:none;paint-order:stroke fill markers;stop-color:#000000"
           id="path6981" /><path
           d="m -428.983,265.274 46.904,-27.081"
           style="font-variation-settings:'wdth' 82, 'wght' 638;opacity:0.390441;fill:#f2f2f2;stroke:#00ffff;stroke-width:0.0499999;stroke-linecap:round;stroke-linejoin:round;stroke-dasharray:none;paint-order:stroke fill markers;stop-color:#000000"
           id="path6983" /><path
           d="m -428.407,266.041 47.067,-27.175"
           style="font-variation-settings:'wdth' 82, 'wght' 638;opacity:0.390441;fill:#f2f2f2;stroke:#00ffff;stroke-width:0.0499999;stroke-linecap:round;stroke-linejoin:round;stroke-dasharray:none;paint-order:stroke fill markers;stop-color:#000000"
           id="path6985" /><path
           d="m -427.83,266.808 47.23,-27.269"
           style="font-variation-settings:'wdth' 82, 'wght' 638;opacity:0.390441;fill:#f2f2f2;stroke:#00ffff;stroke-width:0.0499999;stroke-linecap:round;stroke-linejoin:round;stroke-dasharray:none;paint-order:stroke fill markers;stop-color:#000000"
           id="path6987" /><path
           d="m -427.254,267.575 47.394,-27.363"
           style="font-variation-settings:'wdth' 82, 'wght' 638;opacity:0.390441;fill:#f2f2f2;stroke:#00ffff;stroke-width:0.0499999;stroke-linecap:round;stroke-linejoin:round;stroke-dasharray:none;paint-order:stroke fill markers;stop-color:#000000"
           id="path6989" /><path
           d="m -426.677,268.342 47.556,-27.457"
           style="font-variation-settings:'wdth' 82, 'wght' 638;opacity:0.390441;fill:#f2f2f2;stroke:#00ffff;stroke-width:0.0499999;stroke-linecap:round;stroke-linejoin:round;stroke-dasharray:none;paint-order:stroke fill markers;stop-color:#000000"
           id="path6991" /><path
           d="m -426.1,269.109 47.719,-27.551"
           style="font-variation-settings:'wdth' 82, 'wght' 638;opacity:0.390441;fill:#f2f2f2;stroke:#00ffff;stroke-width:0.0499999;stroke-linecap:round;stroke-linejoin:round;stroke-dasharray:none;paint-order:stroke fill markers;stop-color:#000000"
           id="path6993" /><path
           d="m -425.524,269.876 47.882,-27.645"
           style="font-variation-settings:'wdth' 82, 'wght' 638;opacity:0.390441;fill:#f2f2f2;stroke:#00ffff;stroke-width:0.0499999;stroke-linecap:round;stroke-linejoin:round;stroke-dasharray:none;paint-order:stroke fill markers;stop-color:#000000"
           id="path6995" /><path
           d="m -424.947,270.643 48.045,-27.738"
           style="font-variation-settings:'wdth' 82, 'wght' 638;opacity:0.390441;fill:#f2f2f2;stroke:#00ffff;stroke-width:0.0499999;stroke-linecap:round;stroke-linejoin:round;stroke-dasharray:none;paint-order:stroke fill markers;stop-color:#000000"
           id="path6997" /><path
           d="m -424.371,271.41 48.208,-27.832"
           style="font-variation-settings:'wdth' 82, 'wght' 638;opacity:0.390441;fill:#f2f2f2;stroke:#00ffff;stroke-width:0.0499999;stroke-linecap:round;stroke-linejoin:round;stroke-dasharray:none;paint-order:stroke fill markers;stop-color:#000000"
           id="path6999" /><path
           d="m -423.794,272.178 48.371,-27.927"
           style="font-variation-settings:'wdth' 82, 'wght' 638;opacity:0.390441;fill:#f2f2f2;stroke:#00ffff;stroke-width:0.0499999;stroke-linecap:round;stroke-linejoin:round;stroke-dasharray:none;paint-order:stroke fill markers;stop-color:#000000"
           id="path7001" /><path
           d="m -423.218,272.945 48.534,-28.021"
           style="font-variation-settings:'wdth' 82, 'wght' 638;opacity:0.390441;fill:#f2f2f2;stroke:#00ffff;stroke-width:0.0499999;stroke-linecap:round;stroke-linejoin:round;stroke-dasharray:none;paint-order:stroke fill markers;stop-color:#000000"
           id="path7003" /><path
           d="m -422.641,273.712 48.697,-28.115"
           style="font-variation-settings:'wdth' 82, 'wght' 638;opacity:0.390441;fill:#f2f2f2;stroke:#00ffff;stroke-width:0.0499999;stroke-linecap:round;stroke-linejoin:round;stroke-dasharray:none;paint-order:stroke fill markers;stop-color:#000000"
           id="path7005" /><path
           d="m -422.064,274.479 48.859,-28.209"
           style="font-variation-settings:'wdth' 82, 'wght' 638;opacity:0.390441;fill:#f2f2f2;stroke:#00ffff;stroke-width:0.0499999;stroke-linecap:round;stroke-linejoin:round;stroke-dasharray:none;paint-order:stroke fill markers;stop-color:#000000"
           id="path7007" /><path
           d="m -421.488,275.246 49.023,-28.303"
           style="font-variation-settings:'wdth' 82, 'wght' 638;opacity:0.390441;fill:#f2f2f2;stroke:#00ffff;stroke-width:0.0499999;stroke-linecap:round;stroke-linejoin:round;stroke-dasharray:none;paint-order:stroke fill markers;stop-color:#000000"
           id="path7009" /><path
           d="m -420.911,276.013 49.186,-28.397"
           style="font-variation-settings:'wdth' 82, 'wght' 638;opacity:0.390441;fill:#f2f2f2;stroke:#00ffff;stroke-width:0.0499999;stroke-linecap:round;stroke-linejoin:round;stroke-dasharray:none;paint-order:stroke fill markers;stop-color:#000000"
           id="path7011" /><path
           d="m -420.335,276.78 49.349,-28.491"
           style="font-variation-settings:'wdth' 82, 'wght' 638;opacity:0.390441;fill:#f2f2f2;stroke:#00ffff;stroke-width:0.0499999;stroke-linecap:round;stroke-linejoin:round;stroke-dasharray:none;paint-order:stroke fill markers;stop-color:#000000"
           id="path7013" /><path
           d="m -419.758,277.547 49.512,-28.585"
           style="font-variation-settings:'wdth' 82, 'wght' 638;opacity:0.390441;fill:#f2f2f2;stroke:#00ffff;stroke-width:0.0499999;stroke-linecap:round;stroke-linejoin:round;stroke-dasharray:none;paint-order:stroke fill markers;stop-color:#000000"
           id="path7015" /><path
           d="m -419.181,278.314 49.674,-28.679"
           style="font-variation-settings:'wdth' 82, 'wght' 638;opacity:0.390441;fill:#f2f2f2;stroke:#00ffff;stroke-width:0.0499999;stroke-linecap:round;stroke-linejoin:round;stroke-dasharray:none;paint-order:stroke fill markers;stop-color:#000000"
           id="path7017" /><path
           d="m -418.605,279.081 49.838,-28.773"
           style="font-variation-settings:'wdth' 82, 'wght' 638;opacity:0.390441;fill:#f2f2f2;stroke:#00ffff;stroke-width:0.0499999;stroke-linecap:round;stroke-linejoin:round;stroke-dasharray:none;paint-order:stroke fill markers;stop-color:#000000"
           id="path7019" /><path
           d="m -418.028,279.849 50,-28.868"
           style="font-variation-settings:'wdth' 82, 'wght' 638;opacity:0.390441;fill:#f2f2f2;stroke:#00ffff;stroke-width:0.0499999;stroke-linecap:round;stroke-linejoin:round;stroke-dasharray:none;paint-order:stroke fill markers;stop-color:#000000"
           id="path7021" /><path
           d="m -417.452,280.616 50.164,-28.962"
           style="font-variation-settings:'wdth' 82, 'wght' 638;opacity:0.390441;fill:#f2f2f2;stroke:#00ffff;stroke-width:0.0499999;stroke-linecap:round;stroke-linejoin:round;stroke-dasharray:none;paint-order:stroke fill markers;stop-color:#000000"
           id="path7023" /><path
           d="m -416.875,281.383 50.326,-29.056"
           style="font-variation-settings:'wdth' 82, 'wght' 638;opacity:0.390441;fill:#f2f2f2;stroke:#00ffff;stroke-width:0.0499999;stroke-linecap:round;stroke-linejoin:round;stroke-dasharray:none;paint-order:stroke fill markers;stop-color:#000000"
           id="path7025" /></g><g
         id="g7508"
         transform="matrix(-1,0,0,1,-804.29345,-0.15909)"
         style="stroke:#00ffff"><path
           d="m -437.632,253.767 44.46,-25.669"
           style="font-variation-settings:'wdth' 82, 'wght' 638;opacity:0.390441;fill:#f2f2f2;stroke:#00ffff;stroke-width:0.0499999;stroke-linecap:round;stroke-linejoin:round;stroke-dasharray:none;paint-order:stroke fill markers;stop-color:#000000"
           id="path7434" /><path
           d="m -437.056,254.534 44.623,-25.763"
           style="font-variation-settings:'wdth' 82, 'wght' 638;opacity:0.390441;fill:#f2f2f2;stroke:#00ffff;stroke-width:0.0499999;stroke-linecap:round;stroke-linejoin:round;stroke-dasharray:none;paint-order:stroke fill markers;stop-color:#000000"
           id="path7436" /><path
           d="m -436.479,255.301 44.786,-25.857"
           style="font-variation-settings:'wdth' 82, 'wght' 638;opacity:0.390441;fill:#f2f2f2;stroke:#00ffff;stroke-width:0.0499999;stroke-linecap:round;stroke-linejoin:round;stroke-dasharray:none;paint-order:stroke fill markers;stop-color:#000000"
           id="path7438" /><path
           d="m -435.903,256.068 44.949,-25.951"
           style="font-variation-settings:'wdth' 82, 'wght' 638;opacity:0.390441;fill:#f2f2f2;stroke:#00ffff;stroke-width:0.0499999;stroke-linecap:round;stroke-linejoin:round;stroke-dasharray:none;paint-order:stroke fill markers;stop-color:#000000"
           id="path7440" /><path
           d="m -435.326,256.835 45.112,-26.045"
           style="font-variation-settings:'wdth' 82, 'wght' 638;opacity:0.390441;fill:#f2f2f2;stroke:#00ffff;stroke-width:0.0499999;stroke-linecap:round;stroke-linejoin:round;stroke-dasharray:none;paint-order:stroke fill markers;stop-color:#000000"
           id="path7442" /><path
           d="m -434.749,257.603 45.275,-26.14"
           style="font-variation-settings:'wdth' 82, 'wght' 638;opacity:0.390441;fill:#f2f2f2;stroke:#00ffff;stroke-width:0.0499999;stroke-linecap:round;stroke-linejoin:round;stroke-dasharray:none;paint-order:stroke fill markers;stop-color:#000000"
           id="path7444" /><path
           d="m -434.173,258.37 45.438,-26.234"
           style="font-variation-settings:'wdth' 82, 'wght' 638;opacity:0.390441;fill:#f2f2f2;stroke:#00ffff;stroke-width:0.0499999;stroke-linecap:round;stroke-linejoin:round;stroke-dasharray:none;paint-order:stroke fill markers;stop-color:#000000"
           id="path7446" /><path
           d="m -433.596,259.137 45.601,-26.328"
           style="font-variation-settings:'wdth' 82, 'wght' 638;opacity:0.390441;fill:#f2f2f2;stroke:#00ffff;stroke-width:0.0499999;stroke-linecap:round;stroke-linejoin:round;stroke-dasharray:none;paint-order:stroke fill markers;stop-color:#000000"
           id="path7448" /><path
           d="m -433.02,259.904 45.764,-26.422"
           style="font-variation-settings:'wdth' 82, 'wght' 638;opacity:0.390441;fill:#f2f2f2;stroke:#00ffff;stroke-width:0.0499999;stroke-linecap:round;stroke-linejoin:round;stroke-dasharray:none;paint-order:stroke fill markers;stop-color:#000000"
           id="path7450" /><path
           d="m -432.443,260.671 45.927,-26.516"
           style="font-variation-settings:'wdth' 82, 'wght' 638;opacity:0.390441;fill:#f2f2f2;stroke:#00ffff;stroke-width:0.0499999;stroke-linecap:round;stroke-linejoin:round;stroke-dasharray:none;paint-order:stroke fill markers;stop-color:#000000"
           id="path7452" /><path
           d="m -431.866,261.438 46.089,-26.61"
           style="font-variation-settings:'wdth' 82, 'wght' 638;opacity:0.390441;fill:#f2f2f2;stroke:#00ffff;stroke-width:0.0499999;stroke-linecap:round;stroke-linejoin:round;stroke-dasharray:none;paint-order:stroke fill markers;stop-color:#000000"
           id="path7454" /><path
           d="m -431.29,262.205 46.253,-26.704"
           style="font-variation-settings:'wdth' 82, 'wght' 638;opacity:0.390441;fill:#f2f2f2;stroke:#00ffff;stroke-width:0.0499999;stroke-linecap:round;stroke-linejoin:round;stroke-dasharray:none;paint-order:stroke fill markers;stop-color:#000000"
           id="path7456" /><path
           d="m -430.713,262.972 46.415,-26.798"
           style="font-variation-settings:'wdth' 82, 'wght' 638;opacity:0.390441;fill:#f2f2f2;stroke:#00ffff;stroke-width:0.0499999;stroke-linecap:round;stroke-linejoin:round;stroke-dasharray:none;paint-order:stroke fill markers;stop-color:#000000"
           id="path7458" /><path
           d="m -430.137,263.739 46.579,-26.892"
           style="font-variation-settings:'wdth' 82, 'wght' 638;opacity:0.390441;fill:#f2f2f2;stroke:#00ffff;stroke-width:0.0499999;stroke-linecap:round;stroke-linejoin:round;stroke-dasharray:none;paint-order:stroke fill markers;stop-color:#000000"
           id="path7460" /><path
           d="m -429.56,264.506 46.741,-26.986"
           style="font-variation-settings:'wdth' 82, 'wght' 638;opacity:0.390441;fill:#f2f2f2;stroke:#00ffff;stroke-width:0.0499999;stroke-linecap:round;stroke-linejoin:round;stroke-dasharray:none;paint-order:stroke fill markers;stop-color:#000000"
           id="path7462" /><path
           d="m -428.983,265.274 46.904,-27.081"
           style="font-variation-settings:'wdth' 82, 'wght' 638;opacity:0.390441;fill:#f2f2f2;stroke:#00ffff;stroke-width:0.0499999;stroke-linecap:round;stroke-linejoin:round;stroke-dasharray:none;paint-order:stroke fill markers;stop-color:#000000"
           id="path7464" /><path
           d="m -428.407,266.041 47.067,-27.175"
           style="font-variation-settings:'wdth' 82, 'wght' 638;opacity:0.390441;fill:#f2f2f2;stroke:#00ffff;stroke-width:0.0499999;stroke-linecap:round;stroke-linejoin:round;stroke-dasharray:none;paint-order:stroke fill markers;stop-color:#000000"
           id="path7466" /><path
           d="m -427.83,266.808 47.23,-27.269"
           style="font-variation-settings:'wdth' 82, 'wght' 638;opacity:0.390441;fill:#f2f2f2;stroke:#00ffff;stroke-width:0.0499999;stroke-linecap:round;stroke-linejoin:round;stroke-dasharray:none;paint-order:stroke fill markers;stop-color:#000000"
           id="path7468" /><path
           d="m -427.254,267.575 47.394,-27.363"
           style="font-variation-settings:'wdth' 82, 'wght' 638;opacity:0.390441;fill:#f2f2f2;stroke:#00ffff;stroke-width:0.0499999;stroke-linecap:round;stroke-linejoin:round;stroke-dasharray:none;paint-order:stroke fill markers;stop-color:#000000"
           id="path7470" /><path
           d="m -426.677,268.342 47.556,-27.457"
           style="font-variation-settings:'wdth' 82, 'wght' 638;opacity:0.390441;fill:#f2f2f2;stroke:#00ffff;stroke-width:0.0499999;stroke-linecap:round;stroke-linejoin:round;stroke-dasharray:none;paint-order:stroke fill markers;stop-color:#000000"
           id="path7472" /><path
           d="m -426.1,269.109 47.719,-27.551"
           style="font-variation-settings:'wdth' 82, 'wght' 638;opacity:0.390441;fill:#f2f2f2;stroke:#00ffff;stroke-width:0.0499999;stroke-linecap:round;stroke-linejoin:round;stroke-dasharray:none;paint-order:stroke fill markers;stop-color:#000000"
           id="path7474" /><path
           d="m -425.524,269.876 47.882,-27.645"
           style="font-variation-settings:'wdth' 82, 'wght' 638;opacity:0.390441;fill:#f2f2f2;stroke:#00ffff;stroke-width:0.0499999;stroke-linecap:round;stroke-linejoin:round;stroke-dasharray:none;paint-order:stroke fill markers;stop-color:#000000"
           id="path7476" /><path
           d="m -424.947,270.643 48.045,-27.738"
           style="font-variation-settings:'wdth' 82, 'wght' 638;opacity:0.390441;fill:#f2f2f2;stroke:#00ffff;stroke-width:0.0499999;stroke-linecap:round;stroke-linejoin:round;stroke-dasharray:none;paint-order:stroke fill markers;stop-color:#000000"
           id="path7478" /><path
           d="m -424.371,271.41 48.208,-27.832"
           style="font-variation-settings:'wdth' 82, 'wght' 638;opacity:0.390441;fill:#f2f2f2;stroke:#00ffff;stroke-width:0.0499999;stroke-linecap:round;stroke-linejoin:round;stroke-dasharray:none;paint-order:stroke fill markers;stop-color:#000000"
           id="path7480" /><path
           d="m -423.794,272.178 48.371,-27.927"
           style="font-variation-settings:'wdth' 82, 'wght' 638;opacity:0.390441;fill:#f2f2f2;stroke:#00ffff;stroke-width:0.0499999;stroke-linecap:round;stroke-linejoin:round;stroke-dasharray:none;paint-order:stroke fill markers;stop-color:#000000"
           id="path7482" /><path
           d="m -423.218,272.945 48.534,-28.021"
           style="font-variation-settings:'wdth' 82, 'wght' 638;opacity:0.390441;fill:#f2f2f2;stroke:#00ffff;stroke-width:0.0499999;stroke-linecap:round;stroke-linejoin:round;stroke-dasharray:none;paint-order:stroke fill markers;stop-color:#000000"
           id="path7484" /><path
           d="m -422.641,273.712 48.697,-28.115"
           style="font-variation-settings:'wdth' 82, 'wght' 638;opacity:0.390441;fill:#f2f2f2;stroke:#00ffff;stroke-width:0.0499999;stroke-linecap:round;stroke-linejoin:round;stroke-dasharray:none;paint-order:stroke fill markers;stop-color:#000000"
           id="path7486" /><path
           d="m -422.064,274.479 48.859,-28.209"
           style="font-variation-settings:'wdth' 82, 'wght' 638;opacity:0.390441;fill:#f2f2f2;stroke:#00ffff;stroke-width:0.0499999;stroke-linecap:round;stroke-linejoin:round;stroke-dasharray:none;paint-order:stroke fill markers;stop-color:#000000"
           id="path7488" /><path
           d="m -421.488,275.246 49.023,-28.303"
           style="font-variation-settings:'wdth' 82, 'wght' 638;opacity:0.390441;fill:#f2f2f2;stroke:#00ffff;stroke-width:0.0499999;stroke-linecap:round;stroke-linejoin:round;stroke-dasharray:none;paint-order:stroke fill markers;stop-color:#000000"
           id="path7490" /><path
           d="m -420.911,276.013 49.186,-28.397"
           style="font-variation-settings:'wdth' 82, 'wght' 638;opacity:0.390441;fill:#f2f2f2;stroke:#00ffff;stroke-width:0.0499999;stroke-linecap:round;stroke-linejoin:round;stroke-dasharray:none;paint-order:stroke fill markers;stop-color:#000000"
           id="path7492" /><path
           d="m -420.335,276.78 49.349,-28.491"
           style="font-variation-settings:'wdth' 82, 'wght' 638;opacity:0.390441;fill:#f2f2f2;stroke:#00ffff;stroke-width:0.0499999;stroke-linecap:round;stroke-linejoin:round;stroke-dasharray:none;paint-order:stroke fill markers;stop-color:#000000"
           id="path7494" /><path
           d="m -419.758,277.547 49.512,-28.585"
           style="font-variation-settings:'wdth' 82, 'wght' 638;opacity:0.390441;fill:#f2f2f2;stroke:#00ffff;stroke-width:0.0499999;stroke-linecap:round;stroke-linejoin:round;stroke-dasharray:none;paint-order:stroke fill markers;stop-color:#000000"
           id="path7496" /><path
           d="m -419.181,278.314 49.674,-28.679"
           style="font-variation-settings:'wdth' 82, 'wght' 638;opacity:0.390441;fill:#f2f2f2;stroke:#00ffff;stroke-width:0.0499999;stroke-linecap:round;stroke-linejoin:round;stroke-dasharray:none;paint-order:stroke fill markers;stop-color:#000000"
           id="path7498" /><path
           d="m -418.605,279.081 49.838,-28.773"
           style="font-variation-settings:'wdth' 82, 'wght' 638;opacity:0.390441;fill:#f2f2f2;stroke:#00ffff;stroke-width:0.0499999;stroke-linecap:round;stroke-linejoin:round;stroke-dasharray:none;paint-order:stroke fill markers;stop-color:#000000"
           id="path7500" /><path
           d="m -418.028,279.849 50,-28.868"
           style="font-variation-settings:'wdth' 82, 'wght' 638;opacity:0.390441;fill:#f2f2f2;stroke:#00ffff;stroke-width:0.0499999;stroke-linecap:round;stroke-linejoin:round;stroke-dasharray:none;paint-order:stroke fill markers;stop-color:#000000"
           id="path7502" /><path
           d="m -417.452,280.616 50.164,-28.962"
           style="font-variation-settings:'wdth' 82, 'wght' 638;opacity:0.390441;fill:#f2f2f2;stroke:#00ffff;stroke-width:0.0499999;stroke-linecap:round;stroke-linejoin:round;stroke-dasharray:none;paint-order:stroke fill markers;stop-color:#000000"
           id="path7504" /><path
           d="m -416.875,281.383 50.326,-29.056"
           style="font-variation-settings:'wdth' 82, 'wght' 638;opacity:0.390441;fill:#f2f2f2;stroke:#00ffff;stroke-width:0.0499999;stroke-linecap:round;stroke-linejoin:round;stroke-dasharray:none;paint-order:stroke fill markers;stop-color:#000000"
           id="path7506" /></g></g><circle
       style="fill:#000000;stroke:none;stroke-width:0.4;stroke-linecap:round;stroke-linejoin:round;stroke-dasharray:none;stroke-opacity:1;paint-order:stroke fill markers;stop-color:#000000"
       id="circle10004"
       cx="-379.31912"
       cy="409.41647"
       r="0.43301269" /><g
       id="g3121"
       style="stroke:#00ffff;opacity:0.17430643"><path
         style="font-variation-settings:'wdth' 82, 'wght' 638;opacity:1;fill:#000000;stroke:#00ffff;stroke-width:0.05;stroke-linecap:round;stroke-linejoin:round;stroke-dasharray:none;paint-order:stroke fill markers;stop-color:#000000"
         d="m -424.87186,244.19952 37.07921,21.40811"
         id="path855"
         sodipodi:nodetypes="cc" /><path
         style="font-variation-settings:'wdth' 82, 'wght' 638;opacity:1;fill:#000000;stroke:#00ffff;stroke-width:0.05;stroke-linecap:round;stroke-linejoin:round;stroke-dasharray:none;paint-order:stroke fill markers;stop-color:#000000"
         d="m -414.3932,244.74991 33.94398,19.597"
         id="path1475"
         sodipodi:nodetypes="cc" /><path
         style="font-variation-settings:'wdth' 82, 'wght' 638;opacity:1;fill:#000000;stroke:#00ffff;stroke-width:0.05;stroke-linecap:round;stroke-linejoin:round;stroke-dasharray:none;paint-order:stroke fill markers;stop-color:#000000"
         d="m -426.77804,248.59996 31.4374,18.14995"
         id="path1477"
         sodipodi:nodetypes="cc" /><path
         style="font-variation-settings:'wdth' 82, 'wght' 638;opacity:1;fill:#000000;stroke:#00ffff;stroke-width:0.05;stroke-linecap:round;stroke-linejoin:round;stroke-dasharray:none;paint-order:stroke fill markers;stop-color:#000000"
         d="m -427.73042,253.55003 32.38978,18.69988"
         id="path1479"
         sodipodi:nodetypes="cc" /><path
         style="font-variation-settings:'wdth' 82, 'wght' 638;opacity:1;fill:#000000;stroke:#00ffff;stroke-width:0.05;stroke-linecap:round;stroke-linejoin:round;stroke-dasharray:none;paint-order:stroke fill markers;stop-color:#000000"
         d="m -382.61777,242.905 -40.21917,23.21988"
         id="path1481"
         sodipodi:nodetypes="cc" /><path
         style="font-variation-settings:'wdth' 82, 'wght' 638;opacity:1;fill:#000000;stroke:#00ffff;stroke-width:0.05;stroke-linecap:round;stroke-linejoin:round;stroke-dasharray:none;paint-order:stroke fill markers;stop-color:#000000"
         d="m -395.34064,244.74991 -19.05256,11"
         id="path1483" /><path
         style="font-variation-settings:'wdth' 82, 'wght' 638;opacity:1;fill:#000000;stroke:#00ffff;stroke-width:0.05;stroke-linecap:round;stroke-linejoin:round;stroke-dasharray:none;paint-order:stroke fill markers;stop-color:#000000"
         d="m -379.98779,246.88605 -34.40541,19.86386"
         id="path1485"
         sodipodi:nodetypes="cc" /><path
         style="font-variation-settings:'wdth' 82, 'wght' 638;opacity:1;fill:#000000;stroke:#00ffff;stroke-width:0.05;stroke-linecap:round;stroke-linejoin:round;stroke-dasharray:none;paint-order:stroke fill markers;stop-color:#000000"
         d="m -380.09792,252.44964 -34.29528,19.80027"
         id="path1487"
         sodipodi:nodetypes="cc" /><path
         style="font-variation-settings:'wdth' 82, 'wght' 638;opacity:1;fill:#000000;stroke:#00ffff;stroke-width:0.0499999;stroke-linecap:round;stroke-linejoin:round;stroke-dasharray:none;paint-order:stroke fill markers;stop-color:#000000"
         d="m -409.63006,241.99991 v 27.5"
         id="path1552" /><path
         style="font-variation-settings:'wdth' 82, 'wght' 638;opacity:1;fill:#000000;stroke:#00ffff;stroke-width:0.0499999;stroke-linecap:round;stroke-linejoin:round;stroke-dasharray:none;paint-order:stroke fill markers;stop-color:#000000"
         d="m -404.86692,244.74991 v 27.5"
         id="path1554" /><path
         style="font-variation-settings:'wdth' 82, 'wght' 638;opacity:1;fill:#000000;stroke:#00ffff;stroke-width:0.0499999;stroke-linecap:round;stroke-linejoin:round;stroke-dasharray:none;paint-order:stroke fill markers;stop-color:#000000"
         d="m -400.10378,241.99991 v 27.5"
         id="path1556" /><path
         style="font-variation-settings:'wdth' 82, 'wght' 638;opacity:1;fill:#000000;stroke:#00ffff;stroke-width:0.05;stroke-linecap:round;stroke-linejoin:round;stroke-dasharray:none;paint-order:stroke fill markers;stop-color:#000000"
         d="m -414.3932,239.24991 36.82698,21.262"
         id="path1558"
         sodipodi:nodetypes="cc" /><path
         style="font-variation-settings:'wdth' 82, 'wght' 638;opacity:1;fill:#000000;stroke:#00ffff;stroke-width:0.05;stroke-linecap:round;stroke-linejoin:round;stroke-dasharray:none;paint-order:stroke fill markers;stop-color:#000000"
         d="m -389.22411,241.21818 -39.60278,22.8653"
         id="path1560"
         sodipodi:nodetypes="cc" /><path
         style="font-variation-settings:'wdth' 82, 'wght' 638;opacity:1;fill:#000000;stroke:#00ffff;stroke-width:0.05;stroke-linecap:round;stroke-linejoin:round;stroke-dasharray:none;paint-order:stroke fill markers;stop-color:#000000"
         d="m -395.34064,239.24991 -31.43688,18.14988"
         id="path1562"
         sodipodi:nodetypes="cc" /></g><g
       id="g3040"><g
         id="g3656"
         transform="matrix(1.000006,0,0,1.000006,-33.339826,68.748782)"
         style="opacity:0.390441;stroke-width:1"><path
           id="use3648"
           style="fill:#000000;stroke:none;stroke-width:1.58357;stroke-linecap:round;stroke-linejoin:round;stroke-dasharray:none;stroke-opacity:1;paint-order:stroke fill markers;stop-color:#000000"
           d="M -371.52468 179.59471 A 1.9052323 1.9052323 0 0 0 -373.42998 181.50001 A 1.9052323 1.9052323 0 0 0 -372.91374 182.80379 L -376.76361 189.47467 A 0.54999 0.54999 0 0 0 -376.56259 190.22655 A 0.54999 0.54999 0 0 0 -375.81225 190.02553 L -371.9598 183.35415 A 1.9052323 1.9052323 0 0 0 -371.52468 183.40531 A 1.9052323 1.9052323 0 0 0 -371.09009 183.35415 L -367.23815 190.02553 A 0.54999 0.54999 0 0 0 -366.48626 190.22655 A 0.54999 0.54999 0 0 0 -366.28524 189.47467 L -370.13666 182.80431 A 1.9052323 1.9052323 0 0 0 -369.6199 181.50001 A 1.9052323 1.9052323 0 0 0 -371.52468 179.59471 z " /><circle
           style="fill:#000000;stroke:none;stroke-width:1.58357;stroke-linecap:round;stroke-linejoin:round;stroke-dasharray:none;stroke-opacity:1;paint-order:stroke fill markers;stop-color:#000000"
           id="use3650"
           cx="-376.28806"
           cy="189.74998"
           r="1.9052323" /><circle
           style="fill:#000000;stroke:none;stroke-width:1.58357;stroke-linecap:round;stroke-linejoin:round;stroke-dasharray:none;stroke-opacity:1;paint-order:stroke fill markers;stop-color:#000000"
           id="use3652"
           cx="-366.76178"
           cy="189.74998"
           r="1.9052323" /><path
           style="fill:#000000;stroke:#000000;stroke-width:1.09998;stroke-linecap:round;stroke-linejoin:round;stroke-dasharray:none;stroke-opacity:1;paint-order:stroke fill markers;stop-color:#000000"
           d="m -366.76199,189.7496 -9.52599,2.9e-4"
           id="path3654"
           sodipodi:nodetypes="cc" /></g><g
         id="g3670"
         transform="matrix(1.000006,0,0,1.000006,-33.339826,46.74865)"
         style="opacity:0.390441;stroke-width:1"><g
           id="path3666" /><g
           id="path3668" /></g><g
         id="g5249"
         transform="matrix(1.111402,0,0,1.111402,8.7894535,-32.273618)"
         style="opacity:0.390441;stroke-width:0.899764"><g
           id="g3646"
           transform="matrix(0.89976986,0,0,0.89690466,-37.906363,111.1483)"
           style="stroke-width:1.00159"><g
             id="g3644"
             style="stroke-width:1.00159"><path
               style="fill:#000000;stroke:#000000;stroke-width:1.10175;stroke-linecap:round;stroke-linejoin:round;stroke-dasharray:none;stroke-opacity:1;paint-order:stroke fill markers;stop-color:#000000"
               d="m -371.52493,164.99999 3.8105,-2.2"
               id="path3638" /><path
               style="fill:#000000;stroke:#000000;stroke-width:1.10175;stroke-linecap:round;stroke-linejoin:round;stroke-dasharray:none;stroke-opacity:1;paint-order:stroke fill markers;stop-color:#000000"
               d="m -371.52493,169.39999 v -4.4"
               id="path3640" /><path
               style="fill:#000000;stroke:#000000;stroke-width:1.10175;stroke-linecap:round;stroke-linejoin:round;stroke-dasharray:none;stroke-opacity:1;paint-order:stroke fill markers;stop-color:#000000"
               d="m -375.33543,162.79999 3.8105,2.2"
               id="path3642" /></g></g></g></g><path
       id="path11249"
       style="opacity:0.390441;fill:none;stroke:#ffcc00;stroke-width:0.02;stroke-linecap:round;stroke-linejoin:round;stroke-dasharray:none;paint-order:stroke fill markers;stop-color:#000000"
       d="m -404.86697,248.34415 a 1.9052438,1.9052438 0 0 0 -0.19017,0.0103 1.9052438,1.9052438 0 0 0 -0.047,0.006 1.9052438,1.9052438 0 0 0 -0.36793,0.0842 1.9052438,1.9052438 0 0 0 -0.0476,0.0165 1.9052438,1.9052438 0 0 0 -0.33796,0.16226 1.9052438,1.9052438 0 0 0 -0.0429,0.0269 1.9052438,1.9052438 0 0 0 -0.29869,0.23875 1.9052438,1.9052438 0 0 0 -0.0284,0.0284 1.9052438,1.9052438 0 0 0 -0.11731,0.13126 1.9052438,1.9052438 0 0 0 -0.0243,0.0305 1.9052438,1.9052438 0 0 0 -0.0951,0.13384 1.9052438,1.9052438 0 0 0 -0.0284,0.0455 1.9052438,1.9052438 0 0 0 -0.16278,0.33848 1.9052438,1.9052438 0 0 0 -0.0165,0.0476 1.9052438,1.9052438 0 0 0 -0.0475,0.16433 1.9052438,1.9052438 0 0 0 -0.008,0.0357 1.9052438,1.9052438 0 0 0 -0.0284,0.16899 1.9052438,1.9052438 0 0 0 -0.005,0.0455 1.9052438,1.9052438 0 0 0 -0.0109,0.19069 1.9052438,1.9052438 0 0 0 0.0103,0.18965 1.9052438,1.9052438 0 0 0 0.004,0.0326 1.9052438,1.9052438 0 0 0 0.0274,0.16949 1.9052438,1.9052438 0 0 0 0.004,0.0207 1.9052438,1.9052438 0 0 0 0.0481,0.17621 1.9052438,1.9052438 0 0 0 0.0145,0.0413 1.9052438,1.9052438 0 0 0 0.0563,0.14263 1.9052438,1.9052438 0 0 0 0.0145,0.0326 1.9052438,1.9052438 0 0 0 0.0894,0.16898 1.9052438,1.9052438 0 0 0 0.006,0.009 1.9052438,1.9052438 0 0 0 0.0951,0.14159 1.9052438,1.9052438 0 0 0 0.0284,0.0377 1.9052438,1.9052438 0 0 0 0.11885,0.14107 l -1.18959,2.06086 -0.95756,-0.55139 a 0.55087832,0.54912413 0 0 0 -0.7519,0.20257 0.55087832,0.54912413 0 0 0 0.20102,0.74931 l 0.95912,0.55191 -1.19941,2.07791 a 1.9052438,1.9052438 0 0 0 -0.43615,-0.0501 1.9052438,1.9052438 0 0 0 -1.90531,1.90531 1.9052438,1.9052438 0 0 0 1.90531,1.90479 1.9052438,1.9052438 0 0 0 1.82314,-1.35392 h 2.38849 v 1.06764 a 0.55087832,0.54912413 0 0 0 0.55087,0.54932 0.55087832,0.54912413 0 0 0 0.55087,-0.54932 v -1.06764 h 2.38952 a 1.9052438,1.9052438 0 0 0 1.82314,1.35392 1.9052438,1.9052438 0 0 0 1.90531,-1.90479 1.9052438,1.9052438 0 0 0 -1.90531,-1.90531 1.9052438,1.9052438 0 0 0 -0.43511,0.0506 l -1.20045,-2.07894 0.95809,-0.55139 a 0.55087832,0.54912413 0 0 0 0.20102,-0.74931 0.55087832,0.54912413 0 0 0 -0.7519,-0.20257 l -0.95704,0.55087 -1.18908,-2.05982 a 1.9052438,1.9052438 0 0 0 0.008,-0.009 1.9052438,1.9052438 0 0 0 0.002,-0.002 1.9052438,1.9052438 0 0 0 0.17518,-0.22014 1.9052438,1.9052438 0 0 0 10e-4,-0.002 1.9052438,1.9052438 0 0 0 0.0749,-0.11938 1.9052438,1.9052438 0 0 0 5.1e-4,-0.001 1.9052438,1.9052438 0 0 0 0.0661,-0.12506 1.9052438,1.9052438 0 0 0 0.003,-0.007 1.9052438,1.9052438 0 0 0 0.0491,-0.11266 1.9052438,1.9052438 0 0 0 0.008,-0.0207 1.9052438,1.9052438 0 0 0 0.0801,-0.262 1.9052438,1.9052438 0 0 0 0,-0.001 1.9052438,1.9052438 0 0 0 0.0269,-0.13901 1.9052438,1.9052438 0 0 0 10e-4,-0.008 1.9052438,1.9052438 0 0 0 0.015,-0.13332 1.9052438,1.9052438 0 0 0 0,-0.006 1.9052438,1.9052438 0 0 0 0.005,-0.13591 1.9052438,1.9052438 0 0 0 -0.002,-0.0749 1.9052438,1.9052438 0 0 0 -10e-4,-0.0233 1.9052438,1.9052438 0 0 0 -0.003,-0.0512 1.9052438,1.9052438 0 0 0 -0.005,-0.0465 1.9052438,1.9052438 0 0 0 -0.003,-0.0279 1.9052438,1.9052438 0 0 0 -0.003,-0.0212 1.9052438,1.9052438 0 0 0 -0.007,-0.0532 1.9052438,1.9052438 0 0 0 -0.008,-0.0434 1.9052438,1.9052438 0 0 0 -0.006,-0.03 1.9052438,1.9052438 0 0 0 -10e-4,-0.005 1.9052438,1.9052438 0 0 0 -0.015,-0.0687 1.9052438,1.9052438 0 0 0 -0.0103,-0.0403 1.9052438,1.9052438 0 0 0 -5.2e-4,-0.002 1.9052438,1.9052438 0 0 0 -0.0124,-0.0455 1.9052438,1.9052438 0 0 0 -0.017,-0.0558 1.9052438,1.9052438 0 0 0 -0.0129,-0.0377 1.9052438,1.9052438 0 0 0 -0.0119,-0.0331 1.9052438,1.9052438 0 0 0 -0.0274,-0.0698 1.9052438,1.9052438 0 0 0 -0.004,-0.008 1.9052438,1.9052438 0 0 0 -0.0264,-0.0605 1.9052438,1.9052438 0 0 0 -0.005,-0.01 1.9052438,1.9052438 0 0 0 -0.0279,-0.0574 1.9052438,1.9052438 0 0 0 -0.016,-0.0305 1.9052438,1.9052438 0 0 0 -0.0191,-0.0357 1.9052438,1.9052438 0 0 0 -0.004,-0.007 1.9052438,1.9052438 0 0 0 -0.0336,-0.0568 1.9052438,1.9052438 0 0 0 -0.004,-0.007 1.9052438,1.9052438 0 0 0 -0.0362,-0.0563 1.9052438,1.9052438 0 0 0 -0.004,-0.005 1.9052438,1.9052438 0 0 0 -0.0393,-0.0563 1.9052438,1.9052438 0 0 0 -0.0176,-0.0238 1.9052438,1.9052438 0 0 0 -0.009,-0.0109 1.9052438,1.9052438 0 0 0 -0.0212,-0.0279 1.9052438,1.9052438 0 0 0 -0.031,-0.0382 1.9052438,1.9052438 0 0 0 -0.032,-0.0372 1.9052438,1.9052438 0 0 0 -0.032,-0.0357 1.9052438,1.9052438 0 0 0 -5.2e-4,-10e-4 1.9052438,1.9052438 0 0 0 -0.1049,-0.10438 1.9052438,1.9052438 0 0 0 -0.003,-0.003 1.9052438,1.9052438 0 0 0 -0.0434,-0.0387 1.9052438,1.9052438 0 0 0 -0.0269,-0.0227 1.9052438,1.9052438 0 0 0 -0.0408,-0.0331 1.9052438,1.9052438 0 0 0 -0.005,-0.004 1.9052438,1.9052438 0 0 0 -0.0553,-0.0419 1.9052438,1.9052438 0 0 0 -0.016,-0.0114 1.9052438,1.9052438 0 0 0 -0.0455,-0.0315 1.9052438,1.9052438 0 0 0 -0.0114,-0.007 1.9052438,1.9052438 0 0 0 -0.0517,-0.0331 1.9052438,1.9052438 0 0 0 -0.0145,-0.009 1.9052438,1.9052438 0 0 0 -0.0496,-0.0289 1.9052438,1.9052438 0 0 0 -0.005,-0.003 1.9052438,1.9052438 0 0 0 -0.061,-0.032 1.9052438,1.9052438 0 0 0 -0.0134,-0.007 1.9052438,1.9052438 0 0 0 -0.0537,-0.0258 1.9052438,1.9052438 0 0 0 -0.006,-0.003 1.9052438,1.9052438 0 0 0 -0.13281,-0.0548 1.9052438,1.9052438 0 0 0 -0.0336,-0.0119 1.9052438,1.9052438 0 0 0 -0.0372,-0.0129 1.9052438,1.9052438 0 0 0 -0.009,-0.003 1.9052438,1.9052438 0 0 0 -0.047,-0.0139 1.9052438,1.9052438 0 0 0 -0.0279,-0.008 1.9052438,1.9052438 0 0 0 -0.13281,-0.0315 1.9052438,1.9052438 0 0 0 -0.03,-0.006 1.9052438,1.9052438 0 0 0 -0.0155,-0.003 1.9052438,1.9052438 0 0 0 -0.0331,-0.006 1.9052438,1.9052438 0 0 0 -0.14366,-0.0171 1.9052438,1.9052438 0 0 0 -0.002,0 1.9052438,1.9052438 0 0 0 -0.015,-0.001 1.9052438,1.9052438 0 0 0 -0.0341,-0.002 1.9052438,1.9052438 0 0 0 -0.0233,-0.001 1.9052438,1.9052438 0 0 0 -0.003,0 1.9052438,1.9052438 0 0 0 -0.0723,-0.002 z m -0.43512,3.75946 a 1.9052438,1.9052438 0 0 0 0.19275,0.0341 1.9052438,1.9052438 0 0 0 0.0507,0.006 1.9052438,1.9052438 0 0 0 0.19172,0.0114 1.9052438,1.9052438 0 0 0 0.42374,-0.0481 1.9052438,1.9052438 0 0 1 5.2e-4,0 1.9052438,1.9052438 0 0 0 0.0109,-0.003 l 1.18908,2.05879 -1.62471,0.93535 -1.62367,-0.93483 z m -1.73891,3.01118 1.62264,0.93328 v 1.90066 h -2.38797 a 1.9052438,1.9052438 0 0 0 -0.43563,-0.75396 z m 4.34754,0 1.20147,2.0805 a 1.9052438,1.9052438 0 0 0 -0.43563,0.75344 h -2.389 v -1.90066 z" /></g></svg>
